
<?xml version="1.0" encoding="utf-8"?>
<!-- Generator: Adobe Illustrator 27.5.0, SVG Export Plug-In . SVG Version: 6.00 Build 0)  -->
<svg version="1.1" xmlns="http://www.w3.org/2000/svg" xmlns:xlink="http://www.w3.org/1999/xlink" x="0px" y="0px"
	 viewBox="0 0 500 500" style="enable-background:new 0 0 500 500;" xml:space="preserve">
<g id="BACKGROUND">
	<rect style="fill:#FFFFFF;" width="500" height="500"/>
</g>
<g id="OBJECTS">
	<g>
		<g>
			<path style="fill:#FFD4D4;" d="M72.706,379.308c-22.907-24.974-26.534-65.575-8.416-94.213
				c6.909-10.921,16.405-19.932,24.376-30.104s14.619-22.293,14.231-35.21c-0.566-18.836-15.426-33.716-23.453-50.765
				c-12.735-27.051-6.66-61.798,14.497-82.924c21.157-21.126,55.913-27.149,82.945-14.374c17.131,8.096,30.742,22.644,48.327,29.7
				c18.213,7.308,38.833,5.782,57.916,1.202c19.083-4.579,37.383-12.051,56.495-16.51c19.111-4.459,39.786-5.721,57.858,1.93
				c18.071,7.652,32.593,25.995,30.968,45.552c-1.588,19.118-17.12,34.036-23.185,52.235c-7.408,22.229,0.091,46.648,10.356,67.711
				c10.265,21.063,23.47,41.165,28.323,64.087c4.853,22.923-1.276,50.442-21.673,61.975"/>
			<g>
				<path style="fill:#FFC258;" d="M417.74,384.289c-5.634-0.762-10.292-5.606-11.448-11.172c-1.155-5.566,0.933-11.545,4.844-15.67
					c2.633-2.777,6.107-4.908,7.782-8.349c1.606-3.299,1.25-7.186,2.064-10.764c1.215-5.342,5.25-9.956,10.382-11.872
					c3.393-1.267,7.226-1.439,10.282-3.383c3.589-2.282,5.37-6.517,8.293-9.607c3.03-3.202,7.374-5.122,11.782-5.206
					c4.408-0.084,8.822,1.668,11.972,4.751c-4.701-0.213-9.287,3.239-10.953,7.64c-1.169,3.087-0.986,6.681-2.786,9.448
					c-2.131,3.275-6.335,4.381-10.166,5.149c-3.831,0.768-8.029,1.662-10.427,4.746c-2.436,3.134-2.215,7.564-1.34,11.436
					c0.875,3.872,2.295,7.749,1.863,11.695c-0.591,5.399-4.529,9.815-8.703,13.29C427.278,379.669,422.293,382.036,417.74,384.289z"
					/>
				<path style="fill:none;stroke:#FFF258;stroke-width:1.2099;stroke-miterlimit:10;" d="M417.034,382.166
					c-1.669-4.194-0.878-9.268,1.987-12.757c2.442-2.972,6.167-4.766,8.288-7.976c2.388-3.614,2.281-8.263,2.194-12.594
					c-0.087-4.331,0.06-9.042,2.789-12.406c2.451-3.02,6.423-4.25,10.13-5.427c3.707-1.176,7.657-2.657,9.776-5.918
					c1.886-2.904,1.949-6.704,3.822-9.616c2.306-3.586,7.401-5.053,11.261-3.241"/>
				<path style="fill:#FFF258;" d="M413.55,382.616c-5.946,1.248-12.372-1.964-15.526-7.156c-3.155-5.193-3.191-11.961-0.727-17.515
					c1.659-3.739,4.394-7.128,4.85-11.193c0.437-3.898-1.312-7.685-1.772-11.58c-0.687-5.814,1.726-11.905,6.209-15.672
					c2.964-2.49,6.762-4.035,9.145-7.086c2.798-3.582,3.076-8.485,4.915-12.642c1.906-4.309,5.594-7.796,10.003-9.458
					c4.409-1.662,9.481-1.477,13.758,0.502c-4.811,1.467-8.195,6.585-8.298,11.613c-0.073,3.527,1.398,7.081,0.574,10.512
					c-0.975,4.06-4.813,6.679-8.397,8.823c-3.583,2.144-7.492,4.546-8.803,8.511c-1.332,4.028,0.475,8.411,2.741,11.997
					c2.266,3.587,5.084,6.983,6.06,11.112c1.336,5.649-1.049,11.505-4.01,16.499C421.503,374.55,417.329,378.718,413.55,382.616z"/>
				<path style="fill:none;stroke:#FFC258;stroke-width:1.2932;stroke-miterlimit:10;" d="M412.079,380.73
					c-3.181-3.628-4.201-9.02-2.563-13.559c1.396-3.867,4.506-7.007,5.494-10.998c1.112-4.494-0.659-9.138-2.296-13.469
					c-1.637-4.331-3.175-9.128-1.629-13.492c1.388-3.919,4.948-6.578,8.261-9.09c3.313-2.511,6.761-5.415,7.728-9.458
					c0.861-3.599-0.435-7.449,0.409-11.052c1.04-4.437,5.646-7.737,10.181-7.293"/>
			</g>
			<g>
				<path style="fill:#FFC258;" d="M79.422,384.289c5.633-0.762,10.292-5.606,11.447-11.172c1.155-5.566-0.933-11.545-4.844-15.67
					c-2.634-2.777-6.107-4.908-7.782-8.349c-1.606-3.299-1.25-7.186-2.064-10.764c-1.215-5.342-5.25-9.956-10.382-11.872
					c-3.393-1.267-7.226-1.439-10.282-3.383c-3.589-2.282-5.37-6.517-8.293-9.607c-3.03-3.202-7.374-5.122-11.782-5.206
					c-4.407-0.084-8.822,1.668-11.972,4.751c4.701-0.213,9.288,3.239,10.954,7.64c1.169,3.087,0.986,6.681,2.786,9.448
					c2.131,3.275,6.335,4.381,10.166,5.149c3.831,0.768,8.029,1.662,10.427,4.746c2.436,3.134,2.215,7.564,1.341,11.436
					c-0.875,3.872-2.295,7.749-1.863,11.695c0.591,5.399,4.528,9.815,8.703,13.29C69.884,379.669,74.869,382.036,79.422,384.289z"/>
				<path style="fill:none;stroke:#FFF258;stroke-width:1.2099;stroke-miterlimit:10;" d="M80.129,382.166
					c1.669-4.194,0.878-9.268-1.987-12.757c-2.442-2.972-6.168-4.766-8.288-7.976c-2.388-3.614-2.281-8.263-2.194-12.594
					c0.087-4.331-0.06-9.042-2.789-12.406c-2.451-3.02-6.423-4.25-10.13-5.427c-3.707-1.176-7.657-2.657-9.775-5.918
					c-1.886-2.904-1.949-6.704-3.822-9.616c-2.306-3.586-7.401-5.053-11.261-3.241"/>
				<path style="fill:#FFF258;" d="M83.612,382.616c5.946,1.248,12.372-1.964,15.526-7.156s3.191-11.961,0.727-17.515
					c-1.659-3.739-4.394-7.128-4.85-11.193c-0.437-3.898,1.312-7.685,1.772-11.58c0.687-5.814-1.726-11.905-6.209-15.672
					c-2.964-2.49-6.762-4.035-9.146-7.086c-2.798-3.582-3.076-8.485-4.915-12.642c-1.906-4.309-5.594-7.796-10.003-9.458
					c-4.409-1.662-9.482-1.477-13.758,0.502c4.811,1.467,8.195,6.585,8.298,11.613c0.072,3.527-1.398,7.081-0.574,10.512
					c0.975,4.06,4.813,6.679,8.397,8.823c3.583,2.144,7.492,4.546,8.803,8.511c1.332,4.028-0.475,8.411-2.741,11.997
					c-2.267,3.587-5.084,6.983-6.06,11.112c-1.336,5.649,1.049,11.505,4.01,16.499C75.659,374.55,79.833,378.718,83.612,382.616z"/>
				<path style="fill:none;stroke:#FFC258;stroke-width:1.2932;stroke-miterlimit:10;" d="M85.083,380.73
					c3.181-3.628,4.201-9.02,2.563-13.559c-1.396-3.867-4.506-7.007-5.494-10.998c-1.112-4.494,0.659-9.138,2.296-13.469
					c1.637-4.331,3.175-9.128,1.629-13.492c-1.388-3.919-4.948-6.578-8.261-9.09c-3.313-2.511-6.761-5.415-7.728-9.458
					c-0.861-3.599,0.435-7.449-0.409-11.052c-1.04-4.437-5.646-7.737-10.182-7.293"/>
			</g>
			<circle style="fill:#FFD4D4;" cx="239.164" cy="78.307" r="8.818"/>
			<circle style="fill:#FFFFFF;" cx="308.808" cy="372.634" r="8.818"/>
			<circle style="fill:#FFD4D4;" cx="437.664" cy="189.696" r="5.048"/>
			<path style="fill:#FFD4D4;" d="M52.784,56.284c0,2.788-2.26,5.048-5.048,5.048s-5.048-2.26-5.048-5.048
				c0-2.788,2.26-5.048,5.048-5.048S52.784,53.496,52.784,56.284z"/>
			<path style="fill:#FFD4D4;" d="M37.731,252.964c0,2.788-2.26,5.048-5.048,5.048s-5.048-2.26-5.048-5.048
				c0-2.788,2.26-5.048,5.048-5.048S37.731,250.176,37.731,252.964z"/>
			<path style="fill:#FFFFFF;" d="M158.762,335.808c0,2.788-2.26,5.048-5.048,5.048c-2.788,0-5.048-2.26-5.048-5.048
				c0-2.788,2.26-5.048,5.048-5.048C156.503,330.76,158.762,333.02,158.762,335.808z"/>
			<circle style="fill:none;stroke:#FFD4D4;stroke-width:1.9362;stroke-miterlimit:10;" cx="64.256" cy="189.696" r="8.818"/>
			<circle style="fill:none;stroke:#FFFFFF;stroke-width:1.9362;stroke-miterlimit:10;" cx="356.665" cy="111.709" r="8.818"/>
			<circle style="fill:none;stroke:#FFD4D4;stroke-width:1.9362;stroke-miterlimit:10;" cx="464.877" cy="275.285" r="8.818"/>
			
				<rect x="157.868" y="88.243" transform="matrix(0.7071 0.7071 -0.7071 0.7071 114.9642 -88.4051)" style="fill:#FFFFFF;" width="12.656" height="12.656"/>
			
				<rect x="439.718" y="44.908" transform="matrix(0.7071 0.7071 -0.7071 0.7071 166.8734 -300.3959)" style="fill:#FFD4D4;" width="12.656" height="12.656"/>
			<path style="fill:#FFC258;" d="M149.761,366.438c-0.49-3.171,0.221-6.766,1.634-9.647c-4.539,1.849-7.495,6.087-9.462,10.576
				c-2.51-3.632-7.168-4.141-11.518-3.388c5.742,3.271,9.984,9.064,11.369,15.525l11.398-1.441
				c0.654-6.23,4.872-11.996,10.744-14.176C159.421,361.801,153.2,362.857,149.761,366.438z"/>
			<path style="fill:#FFC258;" d="M354.146,367.368c-1.967-4.489-4.923-8.728-9.462-10.576c1.414,2.881,2.124,6.476,1.634,9.647
				c-3.439-3.581-9.66-4.637-14.165-2.549c5.872,2.18,10.091,7.946,10.744,14.176l11.398,1.441
				c1.384-6.461,5.627-12.255,11.369-15.525C361.314,363.227,356.656,363.736,354.146,367.368z"/>
			<path style="fill:#FFF258;" d="M282.325,366.438c-0.49-3.171,0.221-6.766,1.634-9.647c-4.539,1.849-7.495,6.087-9.462,10.576
				c-2.51-3.632-7.168-4.141-11.518-3.388c5.742,3.271,9.984,9.064,11.369,15.525l11.398-1.441
				c0.654-6.23,4.872-11.996,10.744-14.176C291.985,361.801,285.764,362.857,282.325,366.438z"/>
			<g>
				<path style="fill:#FE7D9B;" d="M106.759,162.597c-7.601-0.566-15.037-2.32-22.06-5.089c0.564-0.276,1.14-0.873,1.712-1.903
					c2.133-3.843,1.995-9.188,0.12-13.074c-0.488-1.011-1.227-2.062-2.336-2.236c-1.274-0.199-2.399,0.855-3.081,1.949
					c-1.54,2.472-1.959,5.53-1.593,8.42c0.198,1.564,1.066,4.073,2.264,5.633c-6.155-2.719-11.947-6.237-17.207-10.431
					c0.779-0.031,1.599-0.628,2.409-2.087c2.133-3.843,1.995-9.188,0.119-13.074c-0.488-1.011-1.227-2.062-2.336-2.236
					c-1.274-0.199-2.399,0.855-3.081,1.95c-1.54,2.472-1.959,5.53-1.593,8.42c0.159,1.254,0.749,3.115,1.593,4.609
					c-5.703-5.015-10.682-10.866-14.675-17.398c0.699-0.145,1.426-0.758,2.145-2.053c2.133-3.843,1.995-9.188,0.119-13.074
					c-0.488-1.011-1.227-2.062-2.336-2.236c-1.274-0.199-2.399,0.855-3.081,1.95c-1.54,2.472-1.959,5.53-1.593,8.42
					c0.261,2.06,1.681,5.756,3.488,6.767c1.692,2.841,3.565,5.56,5.603,8.141c-1.554-0.908-3.599-1.529-4.941-1.672
					c-2.896-0.309-5.945,0.169-8.387,1.757c-1.081,0.703-2.113,1.849-1.889,3.118c0.195,1.105,1.26,1.824,2.281,2.292
					c3.922,1.8,9.269,1.833,13.07-0.375c1.469-0.854,2.043-1.7,2.038-2.492c4.915,5.688,10.645,10.637,16.948,14.699
					c-1.91,0.051-4.238,0.794-5.536,1.52c-2.543,1.421-4.755,3.573-5.831,6.28c-0.476,1.198-0.657,2.73,0.26,3.637
					c0.798,0.79,2.082,0.76,3.185,0.553c4.241-0.797,8.625-3.859,10.452-7.856c0.422-0.924,0.586-1.663,0.551-2.245
					c4.855,2.825,10.008,5.134,15.361,6.868c-1.655,0.227-3.418,0.836-4.485,1.432c-2.543,1.421-4.755,3.573-5.831,6.28
					c-0.476,1.198-0.657,2.73,0.26,3.637c0.798,0.79,2.082,0.76,3.185,0.553c4.241-0.797,8.625-3.859,10.452-7.856
					c0.589-1.29,0.675-2.217,0.419-2.863c4.491,1.192,9.099,1.984,13.768,2.332L106.759,162.597z"/>
				<path style="fill:#432BD7;" d="M122.302,127.158c3.326-6.858,5.543-14.169,6.675-21.633c-0.522,0.349-1.328,0.548-2.505,0.525
					c-4.394-0.085-8.948-2.887-11.367-6.461c-0.629-0.929-1.167-2.096-0.761-3.142c0.467-1.202,1.944-1.646,3.233-1.686
					c2.912-0.091,5.766,1.082,8.082,2.849c1.254,0.957,2.987,2.967,3.735,4.786c0.739-6.688,0.604-13.464-0.382-20.118
					c-0.418,0.658-1.346,1.068-3.014,1.036c-4.394-0.085-8.948-2.887-11.367-6.461c-0.629-0.93-1.167-2.096-0.761-3.142
					c0.467-1.202,1.944-1.645,3.233-1.686c2.911-0.091,5.766,1.082,8.082,2.849c1.005,0.767,2.318,2.212,3.186,3.692
					c-1.474-7.45-4.034-14.694-7.679-21.426c-0.476,0.532-1.371,0.853-2.852,0.824c-4.394-0.084-8.948-2.887-11.367-6.461
					c-0.629-0.93-1.167-2.096-0.761-3.142c0.467-1.202,1.944-1.645,3.233-1.686c2.911-0.091,5.766,1.082,8.082,2.849
					c1.65,1.26,4.133,4.344,4.101,6.415c1.607,2.89,3.018,5.874,4.228,8.933c-0.005-1.8,0.485-3.88,1.035-5.113
					c1.187-2.66,3.131-5.057,5.731-6.371c1.151-0.582,2.66-0.899,3.645-0.068c0.858,0.724,0.944,2.006,0.837,3.123
					c-0.413,4.296-3.068,8.937-6.886,11.115c-1.476,0.842-2.496,0.913-3.178,0.511c2.452,7.107,3.855,14.547,4.202,22.037
					c1.003-1.627,2.815-3.266,4.094-4.025c2.506-1.486,5.477-2.319,8.358-1.89c1.275,0.19,2.69,0.802,3.015,2.05
					c0.282,1.086-0.388,2.183-1.121,3.032c-2.819,3.268-7.667,5.522-12.042,5.095c-1.011-0.099-1.732-0.328-2.218-0.651
					c0.006,5.617-0.585,11.233-1.773,16.732c1.027-1.317,2.439-2.536,3.49-3.16c2.505-1.486,5.477-2.319,8.358-1.89
					c1.275,0.19,2.69,0.802,3.015,2.05c0.282,1.086-0.388,2.182-1.121,3.032c-2.819,3.268-7.667,5.522-12.042,5.095
					c-1.411-0.138-2.256-0.53-2.686-1.075c-1.224,4.483-2.853,8.865-4.896,13.078L122.302,127.158z"/>
				<g>
					<g>
						<path style="fill:#5CB8F9;" d="M129.213,107.854c-1.178-4.805-3.35-9.716-7.533-12.357c-4.183-2.641-10.581-1.395-12.76,3.046
							c2.727-6.841,2.687-14.74-0.111-21.552c-0.708-1.725-1.61-3.413-2.965-4.695c-1.355-1.281-3.226-2.114-5.077-1.883
							c-2.319,0.29-4.187,2.198-5.059,4.366c-0.872,2.168-0.827,5.767-0.764,8.103c-1.859-6.588-5.235-12.743-9.792-17.852
							c-2.336-2.619-5.381-5.12-8.886-4.946c-3.549,0.176-6.422,3.122-7.869,6.368c-2.182,4.895-1.903,10.605-0.338,15.732
							c1.564,5.126,3.852,10.517,6.583,15.128c-1.749-2.544-4.977-3.985-8.039-3.59c-3.062,0.395-5.818,2.609-6.864,5.514
							c-1.281,3.557-0.058,7.514,1.569,10.927c3.613,7.58,9.343,14.352,16.287,19.074c-2.165-1.044-4.392-2.105-6.787-2.308
							c-2.395-0.202-5.033,0.639-6.31,2.676c-1.55,2.472-0.651,5.716,0.578,8.363c6.193,13.336,20.212,22.669,34.906,23.236
							l29.372-10.7C133.449,141.049,131.667,117.859,129.213,107.854z"/>
					</g>
					<g>
						<path style="fill:#4182B0;" d="M110.78,151.666c-15.546-25.581-27.535-53.163-35.633-81.979l0.932-0.262
							c8.075,28.731,20.028,56.232,35.529,81.737L110.78,151.666z"/>
					</g>
					<g>
						<path style="fill:#4182B0;" d="M92.467,114.821l-0.743-0.62c7.312-8.765,11.39-20.338,11.189-31.75l0.968-0.017
							C104.085,94.076,99.925,105.881,92.467,114.821z"/>
					</g>
					<g>
						<path style="fill:#4182B0;" d="M97.095,127.59c-11.641-1.779-22.173-9.414-27.486-19.924l0.864-0.437
							c5.174,10.236,15.431,17.671,26.769,19.404L97.095,127.59z"/>
					</g>
					<g>
						<path style="fill:#4182B0;" d="M96.251,147.497c-8.604,0-17.182-3.095-23.676-8.874l0.644-0.723
							c9.124,8.12,22.48,10.793,34.024,6.811l0.316,0.915C103.906,146.885,100.076,147.497,96.251,147.497z"/>
					</g>
					<g>
						<path style="fill:#4182B0;" d="M105.92,142.434l-0.701-0.668c9.525-9.989,14.408-24.153,13.062-37.89l0.963-0.095
							C120.618,117.794,115.636,132.243,105.92,142.434z"/>
					</g>
				</g>
			</g>
			<g>
				<path style="fill:#FFF258;" d="M393.989,164.934c7.601-0.566,15.037-2.32,22.06-5.089c-0.564-0.276-1.141-0.873-1.712-1.903
					c-2.133-3.843-1.995-9.188-0.12-13.074c0.488-1.011,1.227-2.062,2.336-2.236c1.274-0.199,2.399,0.855,3.081,1.949
					c1.54,2.472,1.959,5.53,1.593,8.42c-0.198,1.564-1.066,4.073-2.264,5.633c6.155-2.719,11.948-6.237,17.207-10.431
					c-0.779-0.031-1.599-0.628-2.409-2.087c-2.133-3.843-1.995-9.188-0.119-13.074c0.488-1.011,1.227-2.062,2.336-2.236
					c1.274-0.199,2.399,0.855,3.081,1.95c1.54,2.472,1.959,5.53,1.593,8.42c-0.159,1.254-0.749,3.115-1.593,4.609
					c5.703-5.015,10.682-10.866,14.674-17.398c-0.699-0.145-1.426-0.758-2.145-2.053c-2.133-3.843-1.995-9.188-0.12-13.074
					c0.488-1.011,1.227-2.062,2.336-2.235c1.274-0.199,2.399,0.855,3.081,1.95c1.54,2.472,1.959,5.53,1.593,8.42
					c-0.261,2.059-1.681,5.756-3.488,6.767c-1.692,2.841-3.565,5.56-5.603,8.141c1.554-0.908,3.599-1.529,4.941-1.672
					c2.896-0.309,5.945,0.169,8.387,1.757c1.081,0.703,2.113,1.848,1.889,3.118c-0.195,1.105-1.26,1.824-2.281,2.292
					c-3.922,1.8-9.269,1.833-13.07-0.375c-1.469-0.854-2.043-1.7-2.038-2.492c-4.915,5.688-10.645,10.638-16.948,14.699
					c1.91,0.051,4.238,0.794,5.536,1.52c2.543,1.421,4.755,3.573,5.831,6.28c0.476,1.198,0.657,2.73-0.26,3.637
					c-0.798,0.79-2.082,0.76-3.186,0.553c-4.241-0.797-8.625-3.859-10.452-7.856c-0.422-0.924-0.586-1.663-0.551-2.245
					c-4.855,2.825-10.008,5.134-15.361,6.868c1.655,0.227,3.418,0.836,4.485,1.432c2.543,1.421,4.755,3.573,5.831,6.28
					c0.476,1.198,0.657,2.729-0.26,3.637c-0.798,0.79-2.082,0.76-3.185,0.553c-4.241-0.797-8.625-3.859-10.452-7.856
					c-0.589-1.29-0.675-2.217-0.419-2.863c-4.491,1.192-9.099,1.984-13.768,2.332L393.989,164.934z"/>
				<path style="fill:#FE7D9B;" d="M378.446,129.495c-3.326-6.858-5.543-14.169-6.675-21.633c0.522,0.349,1.328,0.548,2.505,0.525
					c4.394-0.085,8.948-2.887,11.367-6.461c0.629-0.93,1.167-2.096,0.761-3.142c-0.467-1.202-1.944-1.646-3.233-1.686
					c-2.912-0.091-5.766,1.082-8.082,2.849c-1.253,0.957-2.987,2.967-3.735,4.786c-0.739-6.688-0.604-13.464,0.382-20.118
					c0.418,0.658,1.346,1.068,3.014,1.036c4.394-0.085,8.948-2.887,11.367-6.461c0.629-0.929,1.167-2.096,0.761-3.142
					c-0.467-1.202-1.944-1.645-3.233-1.686c-2.911-0.091-5.766,1.082-8.082,2.849c-1.005,0.767-2.318,2.212-3.186,3.692
					c1.474-7.45,4.034-14.694,7.679-21.426c0.476,0.532,1.371,0.853,2.852,0.824c4.394-0.084,8.948-2.887,11.367-6.461
					c0.629-0.93,1.167-2.096,0.761-3.142c-0.467-1.202-1.944-1.646-3.233-1.686c-2.911-0.091-5.766,1.082-8.082,2.849
					c-1.65,1.26-4.134,4.344-4.101,6.415c-1.607,2.89-3.018,5.874-4.228,8.933c0.005-1.8-0.485-3.88-1.035-5.113
					c-1.187-2.66-3.131-5.057-5.731-6.371c-1.151-0.582-2.66-0.899-3.645-0.068c-0.858,0.724-0.944,2.006-0.837,3.123
					c0.413,4.296,3.068,8.937,6.886,11.115c1.476,0.842,2.496,0.913,3.178,0.511c-2.452,7.107-3.855,14.547-4.203,22.037
					c-1.003-1.626-2.815-3.266-4.094-4.025c-2.505-1.486-5.477-2.319-8.358-1.89c-1.275,0.19-2.69,0.802-3.015,2.05
					c-0.282,1.086,0.388,2.183,1.121,3.033c2.819,3.268,7.667,5.522,12.042,5.094c1.011-0.099,1.732-0.328,2.218-0.651
					c-0.006,5.617,0.585,11.233,1.773,16.732c-1.027-1.317-2.439-2.536-3.49-3.16c-2.506-1.486-5.477-2.319-8.358-1.89
					c-1.276,0.19-2.69,0.802-3.015,2.05c-0.282,1.086,0.388,2.183,1.121,3.033c2.819,3.268,7.668,5.522,12.042,5.094
					c1.411-0.138,2.256-0.53,2.686-1.075c1.224,4.483,2.853,8.865,4.896,13.078L378.446,129.495z"/>
				<g>
					<g>
						<path style="fill:#5CB8F9;" d="M371.535,110.191c1.178-4.805,3.35-9.716,7.533-12.357c4.183-2.641,10.581-1.395,12.76,3.046
							c-2.727-6.841-2.687-14.74,0.111-21.552c0.708-1.725,1.61-3.413,2.965-4.695c1.355-1.281,3.226-2.114,5.077-1.883
							c2.319,0.29,4.187,2.198,5.059,4.366c0.872,2.168,0.827,5.767,0.765,8.103c1.859-6.588,5.235-12.743,9.792-17.852
							c2.336-2.619,5.381-5.12,8.886-4.946c3.549,0.176,6.422,3.122,7.869,6.368c2.182,4.895,1.903,10.605,0.338,15.732
							s-3.852,10.517-6.583,15.128c1.749-2.544,4.977-3.985,8.039-3.59s5.818,2.609,6.864,5.514
							c1.281,3.557,0.058,7.514-1.569,10.927c-3.613,7.58-9.343,14.352-16.287,19.074c2.165-1.044,4.392-2.105,6.787-2.308
							c2.395-0.202,5.033,0.64,6.31,2.676c1.55,2.472,0.651,5.717-0.578,8.363c-6.194,13.336-20.212,22.669-34.906,23.236
							l-29.372-10.7C367.299,143.387,369.081,120.197,371.535,110.191z"/>
					</g>
					<g>
						<path style="fill:#4182B0;" d="M389.968,154.003c15.546-25.581,27.535-53.163,35.633-81.979l-0.932-0.262
							c-8.075,28.731-20.028,56.232-35.529,81.737L389.968,154.003z"/>
					</g>
					<g>
						<path style="fill:#4182B0;" d="M408.281,117.159l0.743-0.62c-7.311-8.765-11.39-20.338-11.189-31.749l-0.968-0.017
							C396.662,96.413,400.822,108.218,408.281,117.159z"/>
					</g>
					<g>
						<path style="fill:#4182B0;" d="M403.652,129.927c11.641-1.779,22.173-9.414,27.486-19.924l-0.864-0.437
							c-5.174,10.236-15.431,17.671-26.769,19.404L403.652,129.927z"/>
					</g>
					<g>
						<path style="fill:#4182B0;" d="M404.496,149.834c8.603,0,17.182-3.095,23.676-8.874l-0.644-0.723
							c-9.124,8.12-22.481,10.793-34.024,6.811l-0.316,0.915C396.841,149.222,400.671,149.834,404.496,149.834z"/>
					</g>
					<g>
						<path style="fill:#4182B0;" d="M394.827,144.771l0.701-0.668c-9.525-9.989-14.408-24.154-13.062-37.89l-0.963-0.095
							C380.13,120.131,385.111,134.581,394.827,144.771z"/>
					</g>
				</g>
			</g>
		</g>
		<g>
			<g>
				
					<rect x="242.154" y="302.37" transform="matrix(1 -0.0022 0.0022 1 -0.7308 0.5456)" style="fill:#0046C2;" width="21.442" height="74.153"/>
				
					<rect x="246.621" y="302.378" transform="matrix(1 -0.0022 0.0022 1 -0.734 0.5403)" style="fill:#0057F2;" width="5.361" height="74.153"/>
				
					<rect x="236.724" y="298.796" transform="matrix(1 -0.0022 0.0022 1 -0.6615 0.5454)" style="fill:#003CA6;" width="32.163" height="16.975"/>
				
					<rect x="241.191" y="298.814" transform="matrix(1 -0.0022 0.0022 1 -0.6616 0.5281)" style="fill:#0046C2;" width="7.147" height="16.975"/>
				<path style="fill:#003CA6;" d="M275.29,376.475l-44.67,0.096l-0.024-11.32c-0.007-3.123,2.519-5.66,5.642-5.667l33.362-0.072
					c3.123-0.007,5.66,2.519,5.667,5.642L275.29,376.475z"/>
				
					<rect x="240.429" y="359.565" transform="matrix(1 -0.0021 0.0021 1 -0.7904 0.5271)" style="fill:#0046C2;" width="8.934" height="16.975"/>
			</g>
			
				<rect x="96.245" y="113.861" transform="matrix(1 -0.0022 0.0022 1 -0.4474 0.5432)" style="fill:#FFFFFF;stroke:#0046C2;stroke-width:5.2203;stroke-linecap:round;stroke-linejoin:round;stroke-miterlimit:10;" width="311.801" height="188.51"/>
			
				<rect x="141.443" y="142.513" transform="matrix(0.9779 0.209 -0.209 0.9779 41.4123 -31.018)" style="fill:#D9EFFF;" width="52.004" height="75.777"/>
			
				<rect x="345.778" y="148.918" transform="matrix(0.9938 -0.1114 0.1114 0.9938 -18.4983 42.5848)" style="fill:#D9EFFF;" width="52.004" height="75.777"/>
			
				<rect x="215.415" y="154.4" transform="matrix(0.9891 -0.1474 0.1474 0.9891 -25.7124 37.6958)" style="fill:#D9EFFF;" width="52.004" height="75.777"/>
			
				<rect x="285.828" y="191.33" transform="matrix(0.9706 0.2405 -0.2405 0.9706 64.2805 -68.2683)" style="fill:#D9EFFF;" width="52.004" height="75.777"/>
			
				<rect x="96.429" y="114.45" transform="matrix(1 -0.0022 0.0022 1 -0.265 0.5434)" style="fill:#0046C2;" width="311.801" height="17.868"/>
			
				<text transform="matrix(1 -0.0022 0.0022 1 209.0319 127.4718)" style="fill:#FFFFFF; font-family:'Montserrat-ExtraBold'; font-size:15.9689px; letter-spacing:3;">EVENTS</text>
			<rect x="57.413" y="376.531" style="fill:#003CA6;" width="388.634" height="8.934"/>
			<g>
				
					<rect x="111.072" y="147.23" transform="matrix(0.9904 0.1385 -0.1385 0.9904 27.481 -17.5077)" style="fill:#5CB8F9;" width="57.009" height="83.07"/>
				
					<rect x="99.67" y="161.889" transform="matrix(-0.1385 0.9904 -0.9904 -0.1385 345.8486 76.6695)" style="fill:none;stroke:#FFFFFF;stroke-width:0.8144;stroke-miterlimit:10;" width="79.812" height="53.751"/>
				<path style="fill:#FFFFFF;" d="M161.385,190.887l-43.364-6.063c-0.671-0.094-1.139-0.714-1.046-1.385l0,0
					c0.094-0.671,0.714-1.139,1.385-1.046l43.364,6.063c0.671,0.094,1.139,0.714,1.046,1.385l0,0
					C162.677,190.512,162.057,190.98,161.385,190.887z"/>
				<path style="fill:#FFFFFF;" d="M160.569,196.724l-43.364-6.063c-0.671-0.094-1.139-0.714-1.046-1.385l0,0
					c0.094-0.671,0.714-1.139,1.385-1.046l43.364,6.063c0.671,0.094,1.139,0.714,1.045,1.385l0,0
					C161.861,196.35,161.24,196.818,160.569,196.724z"/>
				<path style="fill:#FFFFFF;" d="M152.516,201.549l-36.126-5.051c-0.671-0.094-1.139-0.714-1.046-1.385l0,0
					c0.094-0.671,0.714-1.139,1.385-1.046l36.126,5.051c0.671,0.094,1.139,0.714,1.046,1.385l0,0
					C153.807,201.175,153.187,201.643,152.516,201.549z"/>
				<path style="fill:#FFFFFF;" d="M141.502,205.961l-25.929-3.625c-0.671-0.094-1.139-0.714-1.046-1.385l0,0
					c0.094-0.671,0.714-1.139,1.385-1.046l25.929,3.625c0.671,0.094,1.139,0.714,1.046,1.385l0,0
					C142.794,205.586,142.173,206.055,141.502,205.961z"/>
				<path style="fill:#FFFFFF;" d="M131.605,210.528l-16.848-2.355c-0.671-0.094-1.139-0.714-1.046-1.385l0,0
					c0.094-0.671,0.714-1.139,1.385-1.045l16.848,2.355c0.671,0.094,1.139,0.714,1.046,1.385l0,0
					C132.896,210.154,132.276,210.622,131.605,210.528z"/>
				<path style="fill:#FFFFFF;" d="M153.629,227.38l-38.157-5.335c-2.109-0.295-3.58-2.244-3.285-4.353l0.345-2.465
					c0.295-2.109,2.244-3.58,4.353-3.285l38.157,5.335c2.109,0.295,3.58,2.244,3.285,4.353l-0.345,2.465
					C157.687,226.204,155.738,227.675,153.629,227.38z"/>
				<path style="fill:#FFFFFF;" d="M137.999,180.29l0.508-3.635c0,0-2.309-1.662-2.34-6.575c-0.031-4.913,0.84-5.451,0.225-9.243
					c-0.615-3.792-1.313-5.461-0.328-5.983c0.985-0.522,1.615,0.381,1.723,0.998c0.108,0.616,1.465,6.452,1.465,6.452
					s0.335-1.699,2.118-1.275c1.784,0.424,1.707,0.976,1.707,0.976s0.407-0.971,1.997-0.827c1.59,0.145,1.564,2.275,1.564,2.275
					s2.786-6.188,3.456-7.51c0.67-1.323,1.264-1.686,1.887-1.424c0.623,0.262,1.152,0.918,0.412,3.298
					c-0.74,2.38-3.913,9.949-3.913,9.949s1.407,0.759,1.43,1.151c0.023,0.391-2.188,6.077-4.877,8.515l-0.665,3.923
					C144.369,181.356,141.225,182.332,137.999,180.29z"/>
				<g>
					<polygon style="fill:#FFFFFF;" points="118.481,164.578 126.563,168.13 124.664,170.971 129.325,174.027 121.014,171.328 
						123.194,168.127 					"/>
					<polygon style="fill:#FFFFFF;" points="125.11,152.2 129.92,159.603 126.774,160.936 128.995,166.048 123.526,159.233 
						127.104,157.752 					"/>
				</g>
				<g>
					<polygon style="fill:#FFFFFF;" points="166.496,171.291 157.749,172.491 158.797,175.743 153.477,177.403 162.209,177.087 
						160.99,173.411 					"/>
					<polygon style="fill:#FFFFFF;" points="163.516,157.569 156.86,163.37 159.52,165.514 155.982,169.821 163.11,164.767 
						160.075,162.362 					"/>
				</g>
			</g>
			<g>
				
					<rect x="336.502" y="179.757" transform="matrix(0.9891 -0.1474 0.1474 0.9891 -28.6382 56.2352)" style="fill:#5CB8F9;" width="57.009" height="83.07"/>
				
					<rect x="325.1" y="194.416" transform="matrix(0.1474 0.9891 -0.9891 0.1474 530.063 -172.3528)" style="fill:none;stroke:#FFFFFF;stroke-width:0.8144;stroke-miterlimit:10;" width="79.812" height="53.751"/>
				<path style="fill:#FFFFFF;" d="M386.524,217.156l-43.307,6.456c-0.67,0.1-1.295-0.363-1.395-1.033l0,0
					c-0.1-0.67,0.363-1.295,1.033-1.395l43.307-6.456c0.67-0.1,1.295,0.363,1.395,1.033l0,0
					C387.657,216.431,387.195,217.056,386.524,217.156z"/>
				<path style="fill:#FFFFFF;" d="M387.393,222.985l-43.307,6.456c-0.67,0.1-1.295-0.363-1.395-1.033l0,0
					c-0.1-0.67,0.363-1.295,1.033-1.395l43.307-6.456c0.67-0.1,1.295,0.363,1.395,1.033l0,0
					C388.526,222.261,388.064,222.885,387.393,222.985z"/>
				<path style="fill:#FFFFFF;" d="M370.955,231.395l-25.999,3.876c-0.67,0.1-1.295-0.363-1.395-1.033h0
					c-0.1-0.67,0.363-1.295,1.033-1.395l25.999-3.876c0.67-0.1,1.295,0.363,1.395,1.033l0,0
					C372.088,230.67,371.625,231.295,370.955,231.395z"/>
				<path style="fill:#FFFFFF;" d="M371.824,237.224l-25.999,3.876c-0.67,0.1-1.295-0.363-1.395-1.033l0,0
					c-0.1-0.67,0.362-1.295,1.033-1.395l25.999-3.876c0.67-0.1,1.295,0.363,1.395,1.033l0,0
					C372.957,236.5,372.494,237.124,371.824,237.224z"/>
				<path style="fill:#FFFFFF;" d="M372.693,243.054l-25.999,3.876c-0.67,0.1-1.295-0.363-1.395-1.033l0,0
					c-0.1-0.67,0.363-1.295,1.033-1.395l25.999-3.876c0.67-0.1,1.295,0.363,1.395,1.033l0,0
					C373.826,242.329,373.363,242.954,372.693,243.054z"/>
				<path style="fill:#FFFFFF;" d="M358.19,259.007l-8.122,1.211c-1.423,0.212-2.749-0.77-2.962-2.193l-0.736-4.935
					c-0.212-1.423,0.77-2.749,2.193-2.961l8.122-1.211c1.423-0.212,2.749,0.77,2.961,2.193l0.736,4.935
					C360.596,257.469,359.614,258.794,358.19,259.007z"/>
				<path style="fill:#FFFFFF;" d="M374.419,256.587l-8.122,1.211c-1.423,0.212-2.749-0.77-2.962-2.193l-0.736-4.935
					c-0.212-1.423,0.77-2.749,2.193-2.962l8.122-1.211c1.423-0.212,2.749,0.77,2.962,2.193l0.736,4.935
					C376.825,255.049,375.843,256.375,374.419,256.587z"/>
				<path style="fill:#FFFFFF;" d="M390.648,254.168l-8.122,1.211c-1.423,0.212-2.749-0.77-2.961-2.193l-0.736-4.935
					c-0.212-1.423,0.77-2.749,2.193-2.962l8.122-1.211c1.423-0.212,2.749,0.77,2.961,2.193l0.736,4.935
					C393.053,252.63,392.072,253.956,390.648,254.168z"/>
				<g>
					<path style="fill:#FFFFFF;" d="M369.812,192.961l-0.875,0.13c0.15-0.213,0.226-0.48,0.184-0.758
						c-0.069-0.461-0.43-0.794-0.866-0.868c-0.002-0.023,0.007-0.044,0.003-0.066c-0.048-0.321-0.243-0.575-0.501-0.731
						c0.009-0.086,0.027-0.17,0.013-0.259c-0.086-0.574-0.621-0.971-1.195-0.885c-0.024,0.004-0.043,0.019-0.066,0.024
						c-0.187-0.356-0.563-0.574-0.979-0.551c-0.162-0.47-0.621-0.782-1.13-0.706c-0.242,0.036-0.441,0.164-0.597,0.329
						c-0.198-0.112-0.425-0.177-0.667-0.141c-0.106,0.016-0.199,0.061-0.291,0.105c-0.153-0.484-0.621-0.808-1.139-0.73
						c-0.345,0.051-0.609,0.273-0.759,0.56c-0.199-0.115-0.429-0.181-0.674-0.144c-0.029,0.004-0.051,0.022-0.079,0.028
						c-0.213-0.351-0.622-0.559-1.054-0.494c-0.539,0.08-0.905,0.559-0.88,1.092c-0.054,0-0.105-0.016-0.16-0.008
						c-0.247,0.037-0.449,0.168-0.606,0.338c-0.22-0.174-0.504-0.265-0.804-0.22c-0.574,0.086-0.971,0.621-0.885,1.195
						c0.007,0.045,0.033,0.081,0.045,0.124c-0.063-0.002-0.123-0.019-0.188-0.01c-0.489,0.073-0.829,0.476-0.872,0.948
						c-0.201-0.12-0.436-0.187-0.685-0.149c-0.574,0.086-0.971,0.621-0.885,1.195c0.044,0.294,0.206,0.538,0.43,0.698
						c-0.332,0.218-0.53,0.611-0.467,1.03c0.018,0.124,0.066,0.234,0.122,0.338c-0.025,0.002-0.048-0.007-0.073-0.004
						c-0.574,0.086-0.971,0.621-0.885,1.195l-0.441,0.066c-0.394,0.059-0.666,0.426-0.607,0.82c0.059,0.394,0.426,0.666,0.82,0.607
						l1.176-0.175l1.682,4.957l13.951-2.08l0.163-5.232l0.934-0.139c0.394-0.059,0.666-0.426,0.607-0.82
						C370.573,193.174,370.206,192.902,369.812,192.961z"/>
					<g>
						<path style="fill:#FFFFFF;" d="M377.218,199.139l-15.177,2.262l-15.177,2.262c-1.108,0.165-1.872,1.197-1.707,2.304
							l1.189,7.979c0.165,1.108,1.197,1.872,2.305,1.706l11.135-1.66c1.222-0.182,2.196-1.116,2.429-2.33l0.393-2.05
							c0.123-0.639,0.982-0.767,1.285-0.192l0.974,1.846c0.577,1.093,1.781,1.702,3.003,1.52l11.135-1.66
							c1.108-0.165,1.872-1.197,1.707-2.304l-1.189-7.979C379.358,199.738,378.326,198.974,377.218,199.139z"/>
					</g>
					<g>
						<g>
							<path style="fill:#5CB8F9;" d="M377.428,200.547c0.329-0.049,0.637,0.179,0.686,0.508l1.19,7.98
								c0.049,0.329-0.179,0.637-0.508,0.686l-11.135,1.66c-0.623,0.093-1.24-0.219-1.534-0.777l-0.974-1.846
								c-0.425-0.805-1.28-1.238-2.18-1.104c-0.9,0.134-1.593,0.799-1.764,1.693l-0.393,2.048c-0.119,0.619-0.617,1.097-1.24,1.19
								l-11.136,1.66c-0.329,0.049-0.637-0.179-0.686-0.508l-1.189-7.98c-0.049-0.329,0.179-0.637,0.508-0.686L377.428,200.547
								 M377.358,200.078l-30.355,4.525c-0.588,0.088-0.995,0.638-0.908,1.225l1.19,7.979c0.088,0.588,0.638,0.995,1.225,0.908
								l11.136-1.66c0.822-0.123,1.479-0.754,1.636-1.57l0.393-2.049c0.133-0.694,0.669-1.209,1.368-1.313
								c0.697-0.104,1.361,0.232,1.69,0.856l0.974,1.846c0.388,0.735,1.201,1.147,2.024,1.025l11.135-1.66
								c0.588-0.088,0.995-0.638,0.907-1.226l-1.189-7.979C378.496,200.398,377.946,199.99,377.358,200.078L377.358,200.078z"/>
						</g>
					</g>
					<g>
						<path style="fill:#FFFFFF;" d="M345.159,205.394l2.898-12.771c0.237-1.044,1.55-1.391,2.272-0.6l2.011,2.399l-0.335,0.558
							l-1.768-1.102c-0.135-0.088-0.316,0-0.33,0.161l-0.849,9.583L345.159,205.394z"/>
					</g>
					<g>
						<path style="fill:#FFFFFF;" d="M379.356,200.296l-6.497-11.37c-0.531-0.93-1.889-0.879-2.348,0.089l-1.224,2.881l0.484,0.436
							l1.37-1.57c0.104-0.124,0.302-0.093,0.363,0.057l3.607,8.919L379.356,200.296z"/>
					</g>
				</g>
			</g>
			<g>
				
					<rect x="261.195" y="146.256" transform="matrix(0.9865 0.1638 -0.1638 0.9865 34.677 -44.9208)" style="fill:#5CB8F9;" width="57.009" height="83.07"/>
				
					<rect x="249.794" y="160.916" transform="matrix(-0.1638 0.9865 -0.9865 -0.1638 522.4123 -67.231)" style="fill:none;stroke:#FFFFFF;stroke-width:0.8144;stroke-miterlimit:10;" width="79.812" height="53.751"/>
				<path style="fill:#FFFFFF;" d="M310.895,193.799l-43.194-7.173c-0.669-0.111-1.121-0.743-1.01-1.412l0,0
					c0.111-0.669,0.743-1.121,1.412-1.01l43.194,7.173c0.669,0.111,1.121,0.743,1.01,1.412l0,0
					C312.195,193.458,311.563,193.91,310.895,193.799z"/>
				<path style="fill:#FFFFFF;" d="M296.179,198.632l-29.655-4.924c-0.669-0.111-1.121-0.743-1.01-1.412l0,0
					c0.111-0.669,0.743-1.121,1.412-1.01l29.655,4.924c0.669,0.111,1.121,0.743,1.01,1.412l0,0
					C297.48,198.291,296.848,198.743,296.179,198.632z"/>
				<path style="fill:#FFFFFF;" d="M285.735,204.174l-20.386-3.385c-0.669-0.111-1.121-0.743-1.01-1.412l0,0
					c0.111-0.669,0.743-1.121,1.412-1.01l20.386,3.385c0.669,0.111,1.121,0.743,1.01,1.412l0,0
					C287.036,203.833,286.404,204.285,285.735,204.174z"/>
				<path style="fill:#FFFFFF;" d="M274.5,209.585l-10.327-1.715c-0.669-0.111-1.121-0.743-1.01-1.412l0,0
					c0.111-0.669,0.743-1.121,1.412-1.01l10.327,1.715c0.669,0.111,1.121,0.743,1.01,1.412l0,0
					C275.801,209.244,275.169,209.696,274.5,209.585z"/>
				<path style="fill:#FFFFFF;" d="M306.322,217.006c-0.727,4.378-4.865,7.337-9.243,6.61c-4.378-0.727-7.337-4.865-6.61-9.243
					c0.727-4.378,4.865-7.337,9.243-6.61C304.089,208.49,307.049,212.628,306.322,217.006z"/>
				<g>
					<path style="fill:#FFFFFF;" d="M286.4,165.169c-1.519-2.124-3.921-3.008-5.365-1.975c-1.444,1.033-1.384,3.592,0.135,5.715
						c1.314,1.837,3.288,2.744,4.732,2.287c0.397,0.259,0.912,0.742,1.443,1.657c0.518,0.892,0.765,1.484,0.881,1.861
						c0.16,0.521,0.396,1.014,0.713,1.458l6.397,8.828l3.124,0.519l-7.697-10.651c-0.317-0.443-0.707-0.826-1.149-1.146
						c-0.32-0.232-0.8-0.656-1.477-1.435c-0.694-0.798-0.985-1.442-1.102-1.901C287.934,169.167,287.714,167.006,286.4,165.169z"/>
					<path style="fill:#FFFFFF;" d="M291.02,178.456c0,0,1.671-2.599,3.397-1.026c0,0,10.756-6.81,9.608-10.922l-22.76,16.156
						l3.076,0.511L291.02,178.456z"/>
					<g>
						<g>
							<path style="fill:#FFFFFF;" d="M295.65,167.48l0.331-6.219l-0.648-0.108l-1.148,6.916l-0.52-0.086l1.148-6.916l-0.648-0.108
								l-1.149,6.916l-0.367-0.061l-0.367-0.061l1.148-6.916l-0.648-0.107l-1.148,6.916l-0.52-0.086l1.148-6.916l-0.648-0.108
								l-1.697,5.992c0,0-0.246,0.87,0.119,1.499c0.365,0.627,1.627,2.074,1.43,3.886c-0.011,0.044-0.019,0.084-0.031,0.129
								c-0.274,1.032-0.526,1.645-0.717,2.006c-0.264,0.498-0.452,1.031-0.545,1.588l-1.375,8.28l1.144,0.19l1.144,0.19l1.375-8.28
								c0.092-0.556,0.087-1.122-0.002-1.679c-0.065-0.404-0.105-1.065-0.031-2.13c0.003-0.046,0.009-0.087,0.013-0.132
								c0.399-1.778,2.061-2.74,2.609-3.215C295.602,168.383,295.65,167.48,295.65,167.48z"/>
						</g>
						<path style="fill:#FFFFFF;" d="M307.148,157.493l1.062,0.1c0.301-1.13-0.699-1.738-0.699-1.738l-0.685,0.862
							c-0.45-0.667-1.255-1.055-2.102-0.922l-0.229,0.036c-0.825,0.129-1.614,0.391-2.432,0.464
							c-0.405,0.053-0.803,0.15-1.207,0.184l-1.207,0.106c-1.607,0.076-3.201,0.036-4.77-0.213c-1.569-0.234-3.106-0.666-4.6-1.24
							c-1.493-0.577-2.934-1.332-4.301-2.186l-0.031-0.02c-0.783-0.49-1.802-0.418-2.518,0.184l-0.328-0.918
							c0,0-1.142,0.251-1.223,1.418l0.988,0.237c-0.382,0.82-0.226,1.823,0.47,2.475c0.737,0.69,1.548,1.273,2.373,1.841
							c0.844,0.536,1.718,1.029,2.629,1.455c1.816,0.861,3.774,1.444,5.772,1.749c2,0.295,4.037,0.32,6.022,0.062
							c1.989-0.252,3.902-0.806,5.716-1.531c0.907-0.362,1.477-1.314,1.32-2.319C307.166,157.548,307.154,157.522,307.148,157.493z"
							/>
					</g>
				</g>
			</g>
			<g>
				
					<rect x="186.092" y="173.438" transform="matrix(0.9938 -0.1114 0.1114 0.9938 -22.615 25.2476)" style="fill:#5CB8F9;" width="57.009" height="83.07"/>
				<g>
					<path style="fill:#FFFFFF;" d="M236.78,214.521l-43.513,4.878c-0.674,0.076-1.281-0.409-1.356-1.083l0,0
						c-0.076-0.674,0.409-1.281,1.083-1.356l43.513-4.878c0.674-0.076,1.281,0.409,1.356,1.083l0,0
						C237.939,213.838,237.454,214.445,236.78,214.521z"/>
					<path style="fill:#FFFFFF;" d="M237.437,220.378l-43.513,4.878c-0.674,0.076-1.281-0.409-1.356-1.083l0,0
						c-0.076-0.674,0.409-1.281,1.083-1.356l43.513-4.878c0.674-0.076,1.281,0.409,1.356,1.083l0,0
						C238.595,219.695,238.111,220.302,237.437,220.378z"/>
					<path style="fill:#FFFFFF;" d="M230.831,227.049l-36.251,4.064c-0.674,0.076-1.281-0.409-1.356-1.083l0,0
						c-0.076-0.674,0.409-1.281,1.083-1.356l36.251-4.064c0.674-0.076,1.281,0.409,1.356,1.083l0,0
						C231.99,226.367,231.505,226.974,230.831,227.049z"/>
					<path style="fill:#FFFFFF;" d="M221.255,234.054l-26.018,2.917c-0.674,0.076-1.281-0.409-1.356-1.083l0,0
						c-0.076-0.674,0.409-1.281,1.083-1.356l26.018-2.917c0.674-0.076,1.281,0.409,1.356,1.083l0,0
						C222.414,233.371,221.929,233.978,221.255,234.054z"/>
					<path style="fill:#FFFFFF;" d="M212.8,240.933l-16.906,1.895c-0.674,0.076-1.281-0.409-1.356-1.083l0,0
						c-0.076-0.674,0.409-1.281,1.083-1.356l16.906-1.895c0.674-0.076,1.281,0.409,1.356,1.083l0,0
						C213.958,240.25,213.473,240.857,212.8,240.933z"/>
				</g>
				
					<rect x="174.691" y="188.097" transform="matrix(0.1114 0.9938 -0.9938 0.1114 404.3221 -22.2389)" style="fill:none;stroke:#FFFFFF;stroke-width:0.8144;stroke-miterlimit:10;" width="79.812" height="53.751"/>
				<g>
					<path style="fill:#FFFFFF;" d="M219.85,203.564l4.809-2.29c1.427-0.68,2.267-2.191,2.091-3.761
						c-0.228-2.032-2.066-3.499-4.098-3.271l-0.741,0.083c-0.058-1.016-0.166-1.661-0.166-1.661l-10.1,1.132l-10.1,1.132
						c0,0,0.475,8.253,5.67,11.233l-4.367,0.49c0.085,0.76,0.77,1.306,1.53,1.221l19.597-2.197c0.76-0.085,1.306-0.77,1.221-1.53
						l-6.492,0.728C219.139,204.473,219.52,204.033,219.85,203.564z M222.812,195.672c1.243-0.139,2.368,0.759,2.507,2.001
						c0.108,0.96-0.406,1.885-1.279,2.301l-3.068,1.461c0.746-1.931,0.957-4.013,0.972-5.666L222.812,195.672z"/>
					<path style="fill:#FFFFFF;" d="M212.377,186.929c-0.418,0.842-0.932,1.784-0.977,2.816c-0.027,0.509,0.1,1.038,0.4,1.478
						c0.301,0.437,0.787,0.808,1.378,0.934c-0.812-0.682-0.881-1.573-0.669-2.368c0.221-0.82,0.753-1.615,1.204-2.515
						c0.222-0.45,0.428-0.93,0.531-1.439c0.085-0.511,0.108-1.026-0.023-1.513c-0.218-0.976-0.876-1.864-1.846-2.407
						c0.486,0.845,0.732,1.695,0.73,2.539C213.114,185.305,212.812,186.077,212.377,186.929z"/>
					<path style="fill:#FFFFFF;" d="M210.618,192.444c-0.812-0.682-0.881-1.573-0.669-2.368c0.221-0.82,0.753-1.615,1.204-2.515
						c0.222-0.45,0.429-0.93,0.531-1.439c0.085-0.511,0.108-1.026-0.023-1.514c-0.218-0.976-0.876-1.864-1.846-2.407
						c0.487,0.845,0.732,1.694,0.73,2.539c0.009,0.852-0.293,1.624-0.728,2.476c-0.418,0.842-0.932,1.784-0.978,2.815
						c-0.027,0.509,0.1,1.038,0.401,1.478C209.542,191.947,210.027,192.318,210.618,192.444z"/>
				</g>
			</g>
			<g>
				<g>
					<g>
						
							<rect x="103.013" y="187.598" transform="matrix(0.993 0.1183 -0.1183 0.993 24.0663 -15.1796)" style="fill:#D4484B;" width="73.72" height="14.989"/>
					</g>
				</g>
				<g>
					<g>
						<path style="fill:#FFFFFF;" d="M110.126,194.206c-0.476-0.326-0.829-0.743-1.06-1.253c-0.231-0.509-0.311-1.066-0.239-1.67
							c0.072-0.604,0.28-1.126,0.625-1.568c0.344-0.441,0.785-0.763,1.324-0.968c0.538-0.204,1.123-0.269,1.755-0.193
							c0.581,0.069,1.087,0.233,1.518,0.492c0.431,0.259,0.771,0.6,1.022,1.023l-1.409,0.985c-0.314-0.511-0.722-0.797-1.223-0.857
							c-0.422-0.05-0.777,0.045-1.065,0.285c-0.289,0.239-0.46,0.587-0.515,1.043c-0.054,0.456,0.031,0.834,0.255,1.135
							c0.224,0.301,0.546,0.476,0.968,0.527c0.501,0.059,0.965-0.121,1.39-0.544l1.138,1.288c-0.343,0.352-0.754,0.603-1.234,0.754
							c-0.48,0.151-1.011,0.191-1.591,0.122C111.154,194.731,110.602,194.531,110.126,194.206z"/>
						<path style="fill:#FFFFFF;" d="M120.034,194.593l-2.272-0.27l-0.526,0.995l-2.05-0.244l3.327-5.669l1.982,0.237l1.901,6.29
							l-2.084-0.248L120.034,194.593z M119.652,193.075l-0.402-1.573l-0.76,1.434L119.652,193.075z"/>
						<path style="fill:#FFFFFF;" d="M128.913,196.708l0.307-2.727l-1.559,2.033l-0.889-0.106l-1.049-2.247l-0.313,2.631
							l-1.837-0.219l0.712-5.979l1.657,0.197l1.568,3.418l2.275-2.96l1.657,0.197l-0.695,5.982L128.913,196.708z"/>
						<path style="fill:#FFFFFF;" d="M133.993,197.049c-0.476-0.325-0.829-0.742-1.06-1.252c-0.231-0.51-0.311-1.067-0.239-1.671
							c0.072-0.603,0.28-1.126,0.625-1.567c0.343-0.441,0.785-0.764,1.324-0.969c0.538-0.204,1.123-0.269,1.755-0.194
							c0.581,0.069,1.087,0.233,1.518,0.493c0.431,0.259,0.771,0.6,1.022,1.023l-1.409,0.984c-0.314-0.51-0.722-0.797-1.223-0.856
							c-0.421-0.051-0.776,0.044-1.064,0.284c-0.289,0.24-0.46,0.587-0.515,1.043c-0.054,0.455,0.031,0.834,0.255,1.134
							c0.224,0.302,0.546,0.477,0.968,0.528c0.501,0.059,0.965-0.122,1.39-0.545l1.138,1.289c-0.343,0.352-0.754,0.603-1.234,0.754
							c-0.48,0.15-1.011,0.191-1.591,0.122C135.021,197.575,134.468,197.375,133.993,197.049z"/>
						<path style="fill:#FFFFFF;" d="M144.939,197.076l-0.181,1.521l-4.972-0.592l0.712-5.979l4.861,0.579l-0.181,1.52l-2.879-0.343
							l-0.084,0.701l2.528,0.301l-0.173,1.453l-2.529-0.301l-0.094,0.785L144.939,197.076z"/>
						<path style="fill:#FFFFFF;" d="M147.102,192.812l2.016,0.24l-0.526,4.416l2.699,0.321l-0.186,1.564l-4.715-0.562
							L147.102,192.812z"/>
						<path style="fill:#FFFFFF;" d="M153.227,193.541l2.016,0.241l-0.526,4.416l2.699,0.322l-0.186,1.564l-4.715-0.562
							L153.227,193.541z"/>
						<path style="fill:#FFFFFF;" d="M163.791,199.322l-0.181,1.521l-4.971-0.592l0.712-5.979l4.861,0.578l-0.181,1.521
							l-2.879-0.343l-0.084,0.701l2.529,0.301l-0.173,1.453l-2.528-0.302l-0.094,0.786L163.791,199.322z"/>
						<path style="fill:#FFFFFF;" d="M165.954,195.057l2.947,0.352c0.666,0.079,1.24,0.27,1.721,0.573
							c0.481,0.303,0.835,0.696,1.063,1.179c0.228,0.484,0.307,1.03,0.234,1.639c-0.072,0.61-0.277,1.123-0.612,1.538
							c-0.335,0.417-0.772,0.715-1.311,0.897c-0.538,0.181-1.141,0.232-1.807,0.153l-2.947-0.351L165.954,195.057z M168.29,199.806
							c0.433,0.051,0.794-0.031,1.082-0.248c0.289-0.217,0.46-0.55,0.513-1c0.054-0.45-0.034-0.815-0.264-1.093
							c-0.229-0.278-0.561-0.443-0.993-0.495l-0.845-0.101l-0.338,2.836L168.29,199.806z"/>
					</g>
				</g>
			</g>
			<g>
				<g>
					<g>
						
							<rect x="177.218" y="207.621" transform="matrix(0.9877 -0.1564 0.1564 0.9877 -31.0028 36.1196)" style="fill:#D4484B;" width="73.72" height="14.989"/>
					</g>
				</g>
				<g>
					<g>
						<path style="fill:#FFFFFF;" d="M185.212,222.358c-0.547-0.184-1-0.49-1.361-0.917c-0.361-0.427-0.589-0.941-0.684-1.542
							c-0.095-0.601-0.037-1.16,0.174-1.679c0.211-0.518,0.547-0.948,1.01-1.292c0.462-0.343,1.007-0.564,1.637-0.663
							c0.577-0.092,1.109-0.072,1.595,0.06c0.485,0.132,0.906,0.368,1.262,0.706l-1.088,1.331c-0.441-0.407-0.911-0.57-1.41-0.492
							c-0.42,0.067-0.735,0.255-0.947,0.564c-0.213,0.309-0.283,0.69-0.212,1.143c0.072,0.454,0.257,0.794,0.555,1.023
							c0.297,0.229,0.655,0.31,1.075,0.244c0.498-0.079,0.895-0.379,1.189-0.902l1.446,0.929c-0.234,0.433-0.561,0.785-0.982,1.061
							c-0.421,0.276-0.921,0.459-1.498,0.551C186.344,222.584,185.758,222.541,185.212,222.358z"/>
						<path style="fill:#FFFFFF;" d="M194.851,220.035l-2.26,0.358l-0.235,1.1l-2.039,0.323l1.659-6.36l1.971-0.312l3.541,5.536
							l-2.073,0.329L194.851,220.035z M194.07,218.678l-0.815-1.404l-0.341,1.587L194.07,218.678z"/>
						<path style="fill:#FFFFFF;" d="M203.971,219.653l-0.447-2.708l-0.947,2.38l-0.884,0.139l-1.621-1.877l0.415,2.617
							l-1.827,0.289l-0.941-5.947l1.648-0.261l2.439,2.863l1.384-3.468l1.648-0.261l0.959,5.945L203.971,219.653z"/>
						<path style="fill:#FFFFFF;" d="M208.951,218.599c-0.546-0.184-1-0.489-1.36-0.916c-0.361-0.428-0.589-0.942-0.684-1.543
							c-0.095-0.6-0.037-1.159,0.175-1.678c0.21-0.518,0.547-0.949,1.01-1.292c0.462-0.343,1.007-0.564,1.637-0.664
							c0.577-0.092,1.109-0.072,1.595,0.061c0.485,0.132,0.906,0.368,1.262,0.706l-1.088,1.331c-0.441-0.406-0.911-0.57-1.41-0.491
							c-0.419,0.066-0.735,0.254-0.947,0.563c-0.213,0.31-0.283,0.69-0.211,1.144c0.072,0.453,0.257,0.794,0.554,1.022
							c0.298,0.23,0.655,0.311,1.075,0.245c0.499-0.079,0.895-0.38,1.189-0.903l1.446,0.93c-0.234,0.432-0.561,0.785-0.982,1.061
							c-0.421,0.275-0.921,0.459-1.498,0.551C210.084,218.825,209.497,218.783,208.951,218.599z"/>
						<path style="fill:#FFFFFF;" d="M219.492,215.646l0.24,1.513l-4.945,0.783l-0.942-5.947l4.835-0.765l0.239,1.512l-2.864,0.454
							l0.11,0.697l2.515-0.398l0.229,1.445l-2.515,0.398l0.123,0.781L219.492,215.646z"/>
						<path style="fill:#FFFFFF;" d="M220.413,210.954l2.006-0.318l0.696,4.393l2.684-0.426l0.246,1.555l-4.69,0.743
							L220.413,210.954z"/>
						<path style="fill:#FFFFFF;" d="M226.505,209.989l2.005-0.317l0.695,4.392l2.685-0.425l0.246,1.555l-4.69,0.742
							L226.505,209.989z"/>
						<path style="fill:#FFFFFF;" d="M238.244,212.677l0.24,1.513l-4.945,0.783l-0.942-5.947l4.835-0.766l0.24,1.513l-2.863,0.453
							l0.11,0.697l2.515-0.398l0.229,1.445l-2.515,0.397l0.124,0.782L238.244,212.677z"/>
						<path style="fill:#FFFFFF;" d="M239.164,207.985l2.931-0.464c0.663-0.105,1.267-0.077,1.812,0.083
							c0.545,0.16,0.993,0.443,1.344,0.845c0.351,0.404,0.576,0.908,0.671,1.514c0.096,0.607,0.039,1.156-0.171,1.647
							c-0.209,0.493-0.548,0.898-1.017,1.22c-0.469,0.321-1.035,0.534-1.697,0.639l-2.931,0.464L239.164,207.985z M242.704,211.919
							c0.43-0.068,0.756-0.245,0.974-0.533c0.219-0.288,0.293-0.654,0.222-1.102c-0.071-0.448-0.255-0.775-0.551-0.98
							c-0.296-0.206-0.66-0.274-1.09-0.206l-0.841,0.133l0.447,2.821L242.704,211.919z"/>
					</g>
				</g>
			</g>
			<g>
				<g>
					<g>
						
							<rect x="253.736" y="182.023" transform="matrix(0.9779 0.209 -0.209 0.9779 46.0382 -56.5605)" style="fill:#D4484B;" width="73.72" height="14.989"/>
					</g>
				</g>
				<g>
					<g>
						<path style="fill:#FFFFFF;" d="M261.056,185.902c-0.444-0.369-0.757-0.816-0.94-1.345c-0.183-0.529-0.211-1.09-0.084-1.685
							c0.127-0.595,0.382-1.096,0.766-1.504c0.383-0.407,0.852-0.688,1.407-0.843c0.555-0.154,1.143-0.164,1.766-0.031
							c0.572,0.122,1.061,0.332,1.467,0.629c0.405,0.298,0.713,0.669,0.924,1.112l-1.494,0.852c-0.266-0.538-0.646-0.86-1.139-0.965
							c-0.415-0.088-0.777-0.026-1.086,0.186c-0.31,0.212-0.512,0.542-0.608,0.991c-0.096,0.449-0.046,0.833,0.15,1.154
							c0.195,0.32,0.5,0.524,0.916,0.614c0.493,0.105,0.971-0.032,1.434-0.415l1.015,1.387c-0.374,0.32-0.806,0.531-1.298,0.637
							c-0.492,0.106-1.024,0.097-1.596-0.025C262.031,186.52,261.499,186.269,261.056,185.902z"/>
						<path style="fill:#FFFFFF;" d="M270.886,187.198l-2.237-0.478l-0.615,0.942l-2.019-0.432l3.833-5.339l1.952,0.417l1.315,6.439
							l-2.053-0.438L270.886,187.198z M270.645,185.651l-0.255-1.603l-0.889,1.358L270.645,185.651z"/>
						<path style="fill:#FFFFFF;" d="M279.533,190.12l0.556-2.688l-1.739,1.881l-0.875-0.188l-0.838-2.334l-0.554,2.591
							l-1.809-0.387l1.259-5.888l1.632,0.349l1.248,3.548l2.538-2.739l1.632,0.349l-1.241,5.892L279.533,190.12z"/>
						<path style="fill:#FFFFFF;" d="M284.56,190.926c-0.444-0.368-0.758-0.815-0.94-1.344c-0.183-0.529-0.211-1.091-0.084-1.686
							c0.127-0.594,0.382-1.095,0.766-1.503c0.382-0.408,0.852-0.689,1.407-0.843c0.555-0.154,1.143-0.164,1.766-0.032
							c0.572,0.122,1.061,0.332,1.466,0.63c0.405,0.298,0.713,0.669,0.924,1.112l-1.493,0.85c-0.266-0.537-0.646-0.859-1.14-0.965
							c-0.415-0.089-0.777-0.027-1.086,0.185c-0.31,0.212-0.512,0.542-0.608,0.992c-0.096,0.449-0.046,0.833,0.15,1.153
							c0.195,0.321,0.5,0.525,0.915,0.615c0.494,0.105,0.972-0.033,1.435-0.415l1.015,1.388c-0.374,0.319-0.806,0.531-1.298,0.637
							c-0.492,0.105-1.024,0.097-1.596-0.025C285.536,191.544,285.004,191.294,284.56,190.926z"/>
						<path style="fill:#FFFFFF;" d="M295.458,191.958l-0.32,1.498l-4.896-1.047l1.259-5.888l4.787,1.023l-0.32,1.497l-2.836-0.606
							l-0.148,0.69l2.49,0.532l-0.306,1.431l-2.49-0.532l-0.166,0.773L295.458,191.958z"/>
						<path style="fill:#FFFFFF;" d="M298.003,187.911l1.986,0.424l-0.93,4.35l2.658,0.568l-0.329,1.54l-4.644-0.993
							L298.003,187.911z"/>
						<path style="fill:#FFFFFF;" d="M304.035,189.2l1.985,0.425l-0.93,4.349l2.658,0.568l-0.329,1.54l-4.643-0.993L304.035,189.2z"
							/>
						<path style="fill:#FFFFFF;" d="M314.024,195.927l-0.32,1.498l-4.896-1.047l1.259-5.888l4.787,1.022l-0.32,1.498l-2.835-0.606
							l-0.148,0.69l2.49,0.532l-0.306,1.431l-2.49-0.533l-0.166,0.774L314.024,195.927z"/>
						<path style="fill:#FFFFFF;" d="M316.569,191.879l2.902,0.621c0.656,0.14,1.21,0.383,1.661,0.729
							c0.451,0.346,0.768,0.77,0.951,1.271c0.183,0.503,0.211,1.054,0.082,1.654c-0.128,0.601-0.379,1.093-0.751,1.475
							c-0.372,0.384-0.835,0.641-1.388,0.773c-0.553,0.131-1.157,0.126-1.813-0.014l-2.902-0.62L316.569,191.879z M318.459,196.822
							c0.426,0.091,0.793,0.043,1.1-0.147c0.308-0.19,0.508-0.505,0.603-0.949c0.095-0.443,0.041-0.814-0.162-1.113
							c-0.202-0.298-0.517-0.493-0.944-0.584l-0.832-0.178l-0.597,2.793L318.459,196.822z"/>
					</g>
				</g>
			</g>
			<g>
				<g>
					<g>
						
							<rect x="327.364" y="216.078" transform="matrix(0.9536 -0.3011 0.3011 0.9536 -50.4148 120.0422)" style="fill:#D4484B;" width="73.72" height="14.989"/>
					</g>
				</g>
				<g>
					<g>
						<path style="fill:#FFFFFF;" d="M336.751,235.015c-0.568-0.101-1.061-0.336-1.482-0.705c-0.42-0.369-0.722-0.844-0.905-1.423
							c-0.183-0.58-0.209-1.142-0.076-1.686c0.132-0.543,0.401-1.019,0.808-1.428c0.406-0.408,0.913-0.707,1.52-0.899
							c0.557-0.176,1.086-0.235,1.586-0.177c0.5,0.059,0.95,0.229,1.353,0.511l-0.878,1.478c-0.497-0.337-0.986-0.428-1.467-0.277
							c-0.405,0.128-0.689,0.361-0.853,0.699c-0.165,0.337-0.178,0.725-0.04,1.162c0.139,0.438,0.372,0.747,0.7,0.929
							c0.328,0.182,0.694,0.209,1.099,0.082c0.481-0.152,0.829-0.508,1.042-1.068l1.568,0.705c-0.167,0.462-0.439,0.86-0.814,1.195
							c-0.375,0.335-0.842,0.59-1.4,0.767C337.904,235.07,337.318,235.115,336.751,235.015z"/>
						<path style="fill:#FFFFFF;" d="M345.939,231.288l-2.182,0.689l-0.069,1.123l-1.969,0.622l0.697-6.535l1.903-0.601l4.323,4.95
							l-2.001,0.633L345.939,231.288z M344.966,230.062l-1.014-1.268l-0.102,1.62L344.966,230.062z"/>
						<path style="fill:#FFFFFF;" d="M354.901,229.559l-0.843-2.612l-0.583,2.494l-0.854,0.269l-1.882-1.616l0.798,2.527
							l-1.764,0.557l-1.813-5.742l1.591-0.503l2.837,2.469l0.854-3.635l1.591-0.503l1.83,5.737L354.901,229.559z"/>
						<path style="fill:#FFFFFF;" d="M359.671,227.778c-0.568-0.1-1.061-0.335-1.481-0.704c-0.421-0.37-0.723-0.844-0.905-1.424
							c-0.183-0.579-0.208-1.141-0.076-1.685c0.131-0.544,0.4-1.02,0.808-1.428c0.406-0.408,0.913-0.707,1.52-0.899
							c0.557-0.176,1.086-0.235,1.586-0.176c0.499,0.059,0.95,0.229,1.353,0.511l-0.879,1.477c-0.496-0.336-0.986-0.429-1.467-0.276
							c-0.405,0.127-0.689,0.36-0.853,0.698c-0.164,0.338-0.178,0.725-0.039,1.163c0.138,0.437,0.372,0.747,0.7,0.928
							c0.328,0.183,0.694,0.21,1.099,0.082c0.481-0.152,0.829-0.509,1.042-1.069l1.568,0.706c-0.168,0.462-0.439,0.86-0.814,1.195
							c-0.376,0.335-0.842,0.59-1.4,0.767C360.824,227.833,360.238,227.878,359.671,227.778z"/>
						<path style="fill:#FFFFFF;" d="M369.657,223.294l0.461,1.46l-4.775,1.508l-1.813-5.742l4.668-1.474l0.461,1.46l-2.765,0.873
							l0.212,0.673l2.428-0.767l0.441,1.395l-2.428,0.767l0.238,0.754L369.657,223.294z"/>
						<path style="fill:#FFFFFF;" d="M369.871,218.518l1.936-0.612l1.339,4.241l2.592-0.819l0.474,1.501l-4.528,1.43
							L369.871,218.518z"/>
						<path style="fill:#FFFFFF;" d="M375.753,216.66l1.936-0.611l1.339,4.24l2.592-0.818l0.474,1.502l-4.528,1.43L375.753,216.66z"
							/>
						<path style="fill:#FFFFFF;" d="M387.761,217.577l0.461,1.46l-4.774,1.507l-1.813-5.742l4.667-1.475l0.461,1.46l-2.764,0.873
							l0.212,0.673l2.428-0.767l0.441,1.395l-2.428,0.766l0.238,0.755L387.761,217.577z"/>
						<path style="fill:#FFFFFF;" d="M387.975,212.801l2.83-0.893c0.64-0.202,1.241-0.264,1.804-0.186
							c0.563,0.078,1.048,0.29,1.455,0.636c0.407,0.347,0.704,0.813,0.888,1.398c0.185,0.585,0.21,1.137,0.075,1.654
							c-0.134,0.518-0.409,0.97-0.825,1.357c-0.416,0.387-0.944,0.681-1.584,0.883l-2.83,0.894L387.975,212.801z M392.06,216.166
							c0.415-0.131,0.711-0.355,0.884-0.671c0.174-0.317,0.193-0.69,0.056-1.122c-0.136-0.432-0.367-0.729-0.691-0.888
							c-0.323-0.159-0.693-0.173-1.109-0.042l-0.812,0.256l0.86,2.724L392.06,216.166z"/>
					</g>
				</g>
			</g>
			<rect x="156.031" y="273.893" style="fill:#D9EFFF;" width="66.844" height="17.23"/>
			<rect x="330.223" y="275.547" style="fill:#D9EFFF;" width="66.843" height="17.23"/>
			<rect x="158.956" y="244.262" style="fill:#D9EFFF;" width="16.976" height="20.539"/>
			<rect x="294.854" y="273.893" style="fill:#D9EFFF;" width="16.976" height="20.539"/>
			<g>
				<rect x="108.725" y="248.469" style="fill:#D9EFFF;" width="32.614" height="39.46"/>
				<rect x="112.174" y="252.642" style="fill:#FFFFFF;" width="25.717" height="12.623"/>
			</g>
			<g>
				<rect x="245.469" y="259.009" style="fill:#D9EFFF;" width="28.969" height="35.049"/>
				<rect x="248.532" y="262.715" style="fill:#FFFFFF;" width="22.842" height="11.212"/>
			</g>
		</g>
		<g>
			<g>
				<ellipse style="fill:#DEDEDE;" cx="103.334" cy="429.313" rx="43.836" ry="8.207"/>
				<ellipse style="fill:#DEDEDE;" cx="204.21" cy="455.743" rx="43.836" ry="8.207"/>
				<ellipse style="fill:#DEDEDE;" cx="376.956" cy="447.753" rx="43.836" ry="8.207"/>
			</g>
			<g>
				<g>
					<path style="fill:#FFA8A7;" d="M432.75,261.382c0.898,0.451,1.795,0.904,2.693,1.356l5.138-12.497
						c0.642-1.556,0.058-3.388-1.435-4.267c-1.635-0.963-3.741-0.417-4.703,1.218l-6.823,11.59
						C429.328,259.65,431.036,260.52,432.75,261.382z"/>
				</g>
				<path style="fill:#FFA8A7;" d="M439.173,253.042c0,0,5.679-10.685,7.272-13.058c1.593-2.374,2.519-4.493,2.534-5.242
					c0.015-0.748-2.188,0.076-4.412,3.613c0,0,2.47-4.511,2.421-7.035c-0.049-2.524-3.655,3.711-4.527,5.949
					c0,0,2.265-5.874,1.921-8.476c-0.344-2.603-3.695,4.607-4.483,7.672c0,0,1.154-6.309,0.464-8.045
					c-0.691-1.736-2.556,5.067-2.94,7.922c-0.383,2.855-1.52,3.366-1.81,2.85c-0.29-0.515-1.152-2.646-1.454-3.792
					c-0.189-0.716-1.535-2.248-1.907-1.198c-0.224,0.63,0.149,2.581,0.407,3.742c0.688,3.095,1.255,8.468,0.633,10.76
					c-0.622,2.292-0.966,3.183-0.966,3.183L439.173,253.042z"/>
				<path style="fill:#432BD7;" d="M438.472,258.15l-0.872,2.035l-10.927,25.441c-1.753,4.087-7.23,4.823-10,1.335l-15.777-19.901
					l-8.91-19.038l1.962-10.7l0.1,0.045c4.215,2.062,7.866,5.114,10.627,8.91l16.24,22.335l8.175-13.951l0.99-1.698L438.472,258.15z
					"/>
				<g>
					<path style="fill:#FFA8A7;" d="M350.322,372.675l-0.115,9.656l-0.944,60.919c-0.032,1.934,1.375,3.638,3.34,3.925
						c2.134,0.312,4.118-1.164,4.43-3.299l8.823-60.284l1.641-10.943C361.771,372.624,356.046,372.629,350.322,372.675z"/>
				</g>
				<g>
					<path style="fill:#FFA8A7;" d="M403.264,372.964c-5.719-0.054-11.438-0.114-17.157-0.173l1.62,10.801l8.823,60.284
						c0.278,1.914,1.94,3.37,3.925,3.34c2.157-0.033,3.878-1.809,3.845-3.966l-0.944-60.919L403.264,372.964z"/>
				</g>
				<path style="fill:#5CB8F9;" d="M403.209,330.362l-0.002-0.001c-0.253-9.911-1.177-19.543-4.137-28.741h-22.189h-22.189
					c-2.895,8.996-3.844,18.407-4.121,28.089l0,0l-1.662,52.001l18.334,2.123l7.371-48.865l3.822-1.028l7.334,49.021l19.235-1.818
					L403.209,330.362z"/>
				<rect x="370.72" y="225.964" style="fill:#FFA8A7;" width="12.32" height="13.394"/>
				<path style="fill:#FFA8A7;" d="M376.88,197.196c-14.583,0.297-11.904,7.19-11.268,19.518
					c0.659,12.786,11.268,12.115,11.268,12.115s10.609,0.671,11.268-12.115C388.783,204.386,391.462,197.493,376.88,197.196z"/>
				<path style="fill:#FFA8A7;" d="M387.636,210.962c0.657-0.682,1.863-0.827,2.794-0.458c0.931,0.37,1.587,1.172,1.873,2.038
					c0.286,0.866,0.239,1.791,0.06,2.675c-0.141,0.699-0.368,1.393-0.785,1.998c-0.417,0.605-1.041,1.116-1.803,1.336
					c-0.762,0.221-1.665,0.117-2.276-0.35C387.465,215.763,387.669,213.4,387.636,210.962z"/>
				<path style="fill:#FFA8A7;" d="M366.126,210.962c-0.657-0.682-1.863-0.827-2.794-0.458c-0.931,0.37-1.587,1.172-1.873,2.038
					c-0.286,0.866-0.239,1.791-0.06,2.675c0.142,0.699,0.368,1.393,0.785,1.998c0.417,0.605,1.041,1.116,1.803,1.336
					c0.762,0.221,1.665,0.117,2.276-0.35C366.296,215.763,366.092,213.4,366.126,210.962z"/>
				<g>
					<path style="fill:#FFA8A7;" d="M319.089,262.841c0.476-0.308,0.954-0.613,1.428-0.925c1.696-1.635,3.591-3.086,5.58-4.447
						l-6.051-10.279c-0.853-1.452-2.665-2.093-4.267-1.434c-1.755,0.721-2.592,2.729-1.871,4.484L319.089,262.841z"/>
				</g>
				<g>
					<rect x="346.459" y="446.223" style="fill:#DE5272;" width="14.331" height="1.53"/>
					<path style="fill:#DE5272;" d="M355.357,439.517h-3.466v-2.138c0-0.957,0.776-1.733,1.733-1.733l0,0
						c0.957,0,1.733,0.776,1.733,1.733V439.517z"/>
					<path style="fill:#FE7D9B;" d="M353.624,438.216L353.624,438.216c-3.957,0-7.165,3.208-7.165,7.165v0.841h14.331v-0.841
						C360.79,441.424,357.582,438.216,353.624,438.216z"/>
				</g>
				<g>
					<rect x="393.27" y="446.223" style="fill:#DE5272;" width="14.331" height="1.53"/>
					<path style="fill:#DE5272;" d="M402.168,439.517h-3.466v-2.138c0-0.957,0.776-1.733,1.733-1.733l0,0
						c0.957,0,1.733,0.776,1.733,1.733V439.517z"/>
					<path style="fill:#FE7D9B;" d="M400.436,438.216L400.436,438.216c-3.957,0-7.165,3.208-7.165,7.165v0.841h14.331v-0.841
						C407.601,441.424,404.393,438.216,400.436,438.216z"/>
				</g>
				<path style="fill:#FFA8A7;" d="M315.316,253.042c0,0-5.679-10.685-7.272-13.058c-1.593-2.374-2.519-4.493-2.534-5.242
					c-0.015-0.748,2.188,0.076,4.412,3.613c0,0-2.47-4.511-2.421-7.035c0.049-2.524,3.655,3.711,4.527,5.949
					c0,0-2.265-5.874-1.921-8.476c0.344-2.603,3.695,4.607,4.483,7.672c0,0-1.154-6.309-0.464-8.045
					c0.691-1.736,2.556,5.067,2.94,7.922c0.383,2.855,1.52,3.366,1.81,2.85c0.29-0.515,1.152-2.646,1.454-3.792
					c0.189-0.716,1.535-2.248,1.907-1.198c0.224,0.63-0.149,2.581-0.407,3.742c-0.688,3.095-1.255,8.468-0.633,10.76
					c0.622,2.292,0.966,3.183,0.966,3.183L315.316,253.042z"/>
				<path style="fill:#432BD7;" d="M400.532,302.647c-0.027,1.163-0.064,2.334-0.1,3.515l-47.749,2.425
					c-0.009-1.108-0.018-2.216-0.018-3.324c-0.082-11.009-0.154-22.017-0.227-33.016c-0.055-7.63-0.109-15.268,0.663-22.862
					c0.345-3.424,0.981-7.076,3.361-9.555c1.653-1.726,3.978-2.679,6.331-3.079c2.362-0.4,4.787-0.854,7.13-0.382
					c4.65,0.936,9.483,0.936,14.133,0.009c2.271-0.445,4.687-0.354,6.967,0.082c2.271,0.436,4.514,1.408,6.095,3.115
					c2.58,2.798,2.925,6.93,3.125,10.736C401.168,267.769,401.095,284.082,400.532,302.647z"/>
				<path style="fill:#311F9C;" d="M400.532,302.647c-0.027,1.163-0.064,2.334-0.1,3.515l-47.749,2.425
					c-0.009-1.108-0.018-2.216-0.018-3.324C361.04,304.836,392.23,303.111,400.532,302.647z"/>
				<path style="fill:#432BD7;" d="M362.502,248.023l-8.91,19.038l-15.777,19.901c-2.761,3.488-8.247,2.752-10-1.335l-10.918-25.432
					l-0.881-2.044l8.402-5.186l0.945,1.608l8.211,14.042l16.249-22.335c2.752-3.797,6.404-6.848,10.618-8.91l0.1-0.045
					L362.502,248.023z"/>
				<path style="fill:#00286E;" d="M391.523,214.393c0.975-0.634,1.677-1.712,1.886-2.896c0.209-1.183,0.1-2.164-0.594-3.123
					c1.09-0.753,1.483-2.33,1.145-3.653c-0.338-1.323-1.113-2.499-2.197-3.263c0.952-0.862,1.048-2.484,0.412-3.623
					c-0.636-1.139-1.898-2.002-3.135-2.242c-0.078-1.824-1.422-3.506-3.12-3.906c-1.698-0.399-3.557,0.258-4.37,1.872
					c-0.612-1.65-2.247-2.822-3.935-2.82c-1.688,0.002-3.253,1.101-3.862,2.753c-0.214-1.177-1.266-2.05-2.387-2.278
					c-1.121-0.228-2.286,0.086-3.326,0.582c-0.697,0.332-1.368,0.754-1.886,1.344c-0.518,0.59-0.788,1.603-0.78,2.406
					c-0.447-0.781-1.494-1.015-2.304-0.69c-0.81,0.326-1.397,1.09-1.766,1.914c-0.303,0.677-0.486,1.436-0.377,2.175
					c0.109,0.739,0.549,1.449,1.211,1.727c-1.516,0.22-2.841,1.712-3.18,3.278c-0.339,1.566,0.33,3.317,1.606,4.203
					c-1.13,1.176-1.596,2.825-1.086,4.407c0.51,1.582,1.926,2.799,3.504,3.013c-1.202,0.608-1.805,2.319-1.704,3.714
					s0.928,2.672,2.043,3.441c1.115,0.768,2.488,1.06,3.821,0.993c-0.069,0.905,0.385,1.833,1.157,2.243
					c0.772,0.411,1.7,0.406,2.532,0.158c0.833-0.249,1.587-0.723,2.307-1.226c0.676,1.067,1.662,1.617,2.878,1.743
					c1.216,0.127,2.476-0.346,3.34-1.253c0.824,0.679,1.887,0.902,2.922,0.734c1.035-0.168,1.994-0.803,2.584-1.712
					c0.807,0.609,1.856,0.899,2.85,0.856c0.993-0.043,1.989-0.565,2.504-1.457c0.515-0.892,0.462-2.147-0.224-2.902
					c1.112-0.268,2.017-1.458,2.364-2.599c0.347-1.14,0.08-2.464-0.678-3.358"/>
				
					<rect x="347.54" y="379.53" transform="matrix(0.9905 0.1375 -0.1375 0.9905 55.8333 -45.629)" style="fill:#4182B0;" width="21.473" height="3.791"/>
				
					<rect x="384.547" y="379.531" transform="matrix(-0.9905 0.1375 -0.1375 -0.9905 839.2477 704.894)" style="fill:#4182B0;" width="21.473" height="3.791"/>
				<polygon style="fill:#F58287;" points="350.173,382.215 365.801,384.384 365.219,388.136 350.173,384.138 				"/>
				<polygon style="fill:#F58287;" points="403.387,382.215 387.82,384.376 388.465,388.765 403.387,383.832 				"/>
				<polygon style="fill:#311F9C;" points="438.472,258.15 437.6,260.185 429.089,254.662 430.079,252.964 				"/>
				<polygon style="fill:#311F9C;" points="325.362,254.571 316.897,260.194 316.016,258.15 324.417,252.964 				"/>
				<polygon style="fill:#F58287;" points="323.715,253.397 316.855,257.632 316.016,255.515 323.191,252.572 				"/>
				<polygon style="fill:#F58287;" points="430.766,253.389 437.59,257.605 438.472,255.497 431.078,252.831 				"/>
				<path style="fill:none;stroke:#4182B0;stroke-width:0.9083;stroke-miterlimit:10;" d="M356.98,316.227
					c0,0,4.873,5.074,13.667,2.631"/>
				<path style="fill:none;stroke:#4182B0;stroke-width:0.9083;stroke-miterlimit:10;" d="M395.284,314.579
					c0,0-4.873,5.074-13.667,2.631"/>
				<path style="fill:none;stroke:#4182B0;stroke-width:0.9083;stroke-miterlimit:10;" d="M365.801,378.445
					c-0.099-0.67,6.487-42.637,6.487-42.637"/>
				
					<line style="fill:none;stroke:#4182B0;stroke-width:0.9083;stroke-miterlimit:10;" x1="381.617" y1="334.022" x2="388.45" y2="378.445"/>
			</g>
			<g>
				<g>
					<path style="fill:#FFA8A7;" d="M178.033,433.091l-0.245,18.939c-0.027,1.947,1.403,3.652,3.381,3.92
						c2.137,0.289,4.104-1.208,4.393-3.346l2.644-19.514H178.033z"/>
				</g>
				<g>
					<path style="fill:#FFA8A7;" d="M222.325,433.814l2.754,18.817c0.278,1.914,1.94,3.37,3.925,3.34
						c2.157-0.033,3.878-1.809,3.845-3.966l-0.282-18.191H222.325z"/>
				</g>
				<path style="fill:#00286E;" d="M231.8,342.695h0.002c-0.022-1.942-0.064-3.874-0.135-5.796l-0.003-0.127h-0.001
					c-0.339-9.086-1.338-17.926-4.064-26.397h-22.189H183.22c-2.75,8.547-3.742,17.469-4.072,26.64h-0.002l-0.007,0.274
					c-0.044,1.29-0.077,2.586-0.099,3.885l-2.529,99.262l11.46,0.918l15.913-97.724l2.907-0.937l15.465,98.625l11.788-0.806
					L231.8,342.695z"/>
				<rect x="199.248" y="234.72" style="fill:#FFA8A7;" width="12.32" height="13.394"/>
				<path style="fill:#FFA8A7;" d="M205.408,205.952c-14.583,0.297-11.904,7.19-11.268,19.518
					c0.659,12.786,11.268,12.115,11.268,12.115s10.609,0.671,11.268-12.115C217.312,213.142,219.991,206.249,205.408,205.952z"/>
				<path style="fill:#FFA8A7;" d="M216.164,219.717c0.657-0.681,1.863-0.827,2.794-0.458c0.932,0.37,1.587,1.172,1.873,2.038
					c0.286,0.866,0.239,1.791,0.06,2.675c-0.141,0.699-0.368,1.394-0.785,1.998c-0.417,0.605-1.041,1.116-1.803,1.336
					c-0.762,0.221-1.665,0.117-2.276-0.35C215.994,224.519,216.198,222.155,216.164,219.717z"/>
				<path style="fill:#FFA8A7;" d="M194.654,219.717c-0.657-0.681-1.863-0.827-2.794-0.458c-0.932,0.37-1.587,1.172-1.873,2.038
					c-0.286,0.866-0.239,1.791-0.06,2.675c0.141,0.699,0.368,1.394,0.785,1.998c0.417,0.605,1.041,1.116,1.803,1.336
					c0.762,0.221,1.665,0.117,2.276-0.35C194.824,224.519,194.62,222.155,194.654,219.717z"/>
				<g>
					<path style="fill:#FFA8A7;" d="M179.848,243.43c0.084-0.113,0.172-0.215,0.258-0.322l-15.553-8.636l32.024-21.891
						c1.423-0.98,1.923-2.904,1.085-4.46c-0.899-1.669-2.98-2.293-4.648-1.394l-42.985,23.148c-0.815,0.443-1.56,1.1-2.104,1.93
						c-1.759,2.684-1.01,6.285,1.674,8.044l0.447,0.293l22.83,14.966C174.909,251.043,177.135,247.102,179.848,243.43z"/>
				</g>
				<g>
					<path style="fill:#FFA8A7;" d="M261.501,229.551l-43.734-22.848c-1.535-0.795-3.47-0.33-4.448,1.144
						c-1.048,1.579-0.618,3.709,0.962,4.757l32.747,21.734l-12.673,7.245c2.134,4.132,4.017,8.409,5.75,12.742l21.514-14.504
						l0.464-0.312c0.767-0.521,1.421-1.234,1.88-2.114C265.447,234.549,264.346,231.037,261.501,229.551z"/>
				</g>
				<path style="fill:#FFA8A7;" d="M228.268,253.383c-0.057-3.128-2.216-5.786-5.252-6.431c-4.924-1.046-9.953-1.66-15.006-1.834
					l0-0.024c-0.867-0.022-1.734-0.031-2.601-0.027c-0.867-0.004-1.734,0.005-2.601,0.027l0,0.024
					c-5.053,0.174-10.082,0.788-15.006,1.834c-3.036,0.645-5.195,3.303-5.252,6.431l0.492,57.672h19.975h4.783h19.975
					L228.268,253.383z"/>
				<path style="fill:#FFF258;" d="M230.387,259.376c0.027,4.496-0.027,8.992-0.145,13.488c-0.036,1.617-0.091,3.225-0.145,4.841
					c-0.045,1.181-0.091,2.352-0.136,3.533c-0.127,2.961-0.272,5.922-0.436,8.883c-0.064,1.163-0.127,2.325-0.191,3.479
					c-0.1,1.617-0.191,3.234-0.3,4.85c-0.273,4.469-0.572,8.947-0.872,13.415l-45.615-0.363c-0.309-4.787-0.554-8.901-0.799-13.052
					c-0.1-1.599-0.191-3.197-0.3-4.85c-0.064-1.135-0.136-2.289-0.209-3.479c-0.073-1.181-0.145-2.407-0.227-3.678
					c-0.109-1.735-0.227-3.47-0.336-5.204c-0.064-1.181-0.136-2.353-0.191-3.533c-0.091-1.617-0.163-3.224-0.227-4.841
					c-0.145-4.015-0.2-8.038-0.073-12.062c0.109-3.424,0.418-7.039,2.38-9.855c1.671-2.398,4.369-3.915,7.176-4.714
					c2.807-0.799,5.731-1.163,8.647-1.299c-0.227-0.954-0.163-1.962-0.182-2.943c4.351-2.471,9.946-2.607,14.415-0.363
					c0.045,1.108-0.055,2.243-0.227,3.342c3.052-0.073,6.085,0.136,9.037,0.863c2.961,0.736,5.822,2.38,7.366,5.005
					C230.278,253.363,230.368,256.442,230.387,259.376z"/>
				<g>
					<rect x="174.479" y="454.978" style="fill:#4182B0;" width="14.331" height="1.53"/>
					<path style="fill:#4182B0;" d="M183.377,448.272h-3.466v-2.138c0-0.957,0.776-1.733,1.733-1.733l0,0
						c0.957,0,1.733,0.776,1.733,1.733V448.272z"/>
					<path style="fill:#5CB8F9;" d="M181.644,446.971L181.644,446.971c-3.957,0-7.166,3.208-7.166,7.165v0.841h14.331v-0.841
						C188.81,450.18,185.602,446.971,181.644,446.971z"/>
				</g>
				<g>
					<rect x="221.798" y="454.978" style="fill:#4182B0;" width="14.331" height="1.53"/>
					<path style="fill:#4182B0;" d="M230.697,448.272h-3.466v-2.138c0-0.957,0.776-1.733,1.733-1.733l0,0
						c0.957,0,1.733,0.776,1.733,1.733V448.272z"/>
					<path style="fill:#5CB8F9;" d="M228.964,446.971L228.964,446.971c-3.957,0-7.165,3.208-7.165,7.165v0.841h14.331v-0.841
						C236.129,450.18,232.921,446.971,228.964,446.971z"/>
				</g>
				
					<rect x="175.314" y="439.089" transform="matrix(0.996 0.0895 -0.0895 0.996 40.133 -14.5296)" style="fill:#0046C2;" width="13.521" height="2.272"/>
				
					<rect x="221.076" y="439.089" transform="matrix(-0.996 0.0895 -0.0895 -0.996 494.1611 858.291)" style="fill:#0046C2;" width="13.521" height="2.272"/>
				<polygon style="fill:#FFF258;" points="221.036,245.742 238.975,237.93 247.12,250.488 230.387,264.383 				"/>
				<polygon style="fill:#FFF258;" points="173.412,238.421 164.281,250.814 180.783,263.338 190.175,246.113 				"/>
				<path style="fill:#00286E;" d="M205.844,234.754c-3.312,0.227-6.646-0.999-9.221-3.095c-2.574-2.096-4.414-5.014-5.493-8.153
					c-1.079-3.14-1.423-6.498-1.322-9.816c0.046-1.504,0.196-3.054,0.909-4.38c0.712-1.326,2.111-2.381,3.613-2.275
					c1.128-1.407,2.822-2.267,4.576-2.683c1.755-0.416,3.58-0.416,5.382-0.344c2.225,0.089,4.465,0.289,6.594,0.94
					c2.129,0.651,4.157,1.783,5.586,3.491c1.577,1.885,2.322,4.333,2.702,6.76c0.678,4.34,0.249,8.974-1.943,12.781
					C215.035,231.786,210.227,234.454,205.844,234.754z"/>
				
					<line style="fill:none;stroke:#0046C2;stroke-width:0.9083;stroke-miterlimit:10;" x1="209.501" y1="341.891" x2="223.886" y2="437.433"/>
				
					<line style="fill:none;stroke:#0046C2;stroke-width:0.9083;stroke-miterlimit:10;" x1="201.217" y1="341.891" x2="186.832" y2="437.433"/>
				<polygon style="fill:none;stroke:#0046C2;stroke-width:0.9083;stroke-miterlimit:10;" points="186.314,319.247 198.908,319.247 
					198.908,324.946 192.611,328.715 186.314,325.038 				"/>
				<polygon style="fill:none;stroke:#0046C2;stroke-width:0.9083;stroke-miterlimit:10;" points="211.434,319.247 224.028,319.247 
					224.028,324.946 217.731,328.715 211.434,325.038 				"/>
				
					<line style="fill:none;stroke:#0046C2;stroke-width:0.9083;stroke-miterlimit:10;" x1="183.706" y1="313.422" x2="226.635" y2="313.882"/>
				<path style="fill:#FFC258;" d="M229.333,293.6c-0.1,1.617-0.191,3.234-0.3,4.85h-47.286c-0.1-1.599-0.191-3.197-0.3-4.85
					H229.333z"/>
				<path style="fill:#FFC258;" d="M230.241,272.864c-0.036,1.617-0.091,3.225-0.145,4.841h-49.611
					c-0.091-1.617-0.163-3.224-0.227-4.841H230.241z"/>
				<path style="fill:#FFC258;" d="M229.96,281.239c-0.127,2.961-0.272,5.922-0.436,8.883h-48.285
					c-0.073-1.181-0.145-2.407-0.227-3.678c-0.109-1.735-0.227-3.47-0.336-5.204H229.96z"/>
			</g>
			<g>
				<g>
					<path style="fill:#FFA8A7;" d="M131.466,257.766c-0.083-0.046-0.168-0.088-0.251-0.134l-11.633,21.01
						c-0.556,1.004-0.343,2.293,0.57,3.056c1.035,0.866,2.575,0.728,3.44-0.306l15.732-18.808
						C136.701,260.992,134.082,259.386,131.466,257.766z"/>
				</g>
				<path style="fill:#00286E;" d="M144.5,257.192l-6.167,7.784l-1.117,1.399l-8.484-5.613l0.799-1.317l2.352-3.888l-11.944-10.636
					l-1.571-18.039l3.115-2.816l22.662,25.986C145.898,252.06,146.044,255.012,144.5,257.192z"/>
				<rect x="98.238" y="209.513" style="fill:#FFA8A7;" width="10.225" height="13.394"/>
				<path style="fill:#FFA8A7;" d="M103.35,180.745c-14.583,0.297-11.904,7.19-11.268,19.518
					c0.659,12.786,11.268,12.115,11.268,12.115s10.609,0.671,11.268-12.115C115.254,187.934,117.933,181.042,103.35,180.745z"/>
				<path style="fill:#FFA8A7;" d="M114.106,194.51c0.657-0.681,1.863-0.827,2.794-0.458c0.932,0.37,1.587,1.172,1.873,2.038
					c0.286,0.866,0.239,1.791,0.06,2.675c-0.141,0.699-0.368,1.394-0.785,1.998c-0.417,0.605-1.041,1.116-1.803,1.336
					c-0.762,0.221-1.665,0.117-2.276-0.35C113.936,199.311,114.14,196.948,114.106,194.51z"/>
				<path style="fill:#FFA8A7;" d="M92.596,194.51c-0.657-0.681-1.863-0.827-2.794-0.458c-0.931,0.37-1.587,1.172-1.873,2.038
					c-0.286,0.866-0.239,1.791-0.06,2.675c0.141,0.699,0.368,1.394,0.785,1.998c0.417,0.605,1.041,1.116,1.803,1.336
					c0.762,0.221,1.665,0.117,2.276-0.35C92.767,199.311,92.563,196.948,92.596,194.51z"/>
				<g>
					<path style="fill:#FFA8A7;" d="M75.677,399.94c-0.047,8.933-0.008,17.874,0.234,26.833c0.048,1.806,1.333,3.407,3.179,3.779
						c2.146,0.433,4.238-0.956,4.671-3.102c1.847-9.155,3.474-18.329,5.012-27.51H75.677z"/>
				</g>
				<g>
					<path style="fill:#FFA8A7;" d="M118.036,400.839c1.493,8.881,3.073,17.755,4.86,26.611c0.357,1.771,1.897,3.128,3.78,3.179
						c2.189,0.059,4.011-1.667,4.07-3.856c0.234-8.658,0.28-17.299,0.24-25.934H118.036z"/>
				</g>
				<path style="fill:#FFA8A7;" d="M103.212,218.325c-6.592,0.367-13.181,2.538-18.373,6.578c-1.235,0.961-1.831,2.528-1.482,4.054
					c1.414,6.181,5.178,23.569,6.227,37.759h15.484v-48.39H103.212z"/>
				<path style="fill:#FFA8A7;" d="M103.49,218.325c6.592,0.367,13.181,2.538,18.373,6.578c1.235,0.961,1.831,2.528,1.482,4.054
					c-1.414,6.181-5.179,23.569-6.227,37.759h-15.484v-48.39H103.49z"/>
				<g>
					<path style="fill:#FFA8A7;" d="M86.6,278.643L75.37,258.36c-2.505,1.821-5.036,3.6-7.623,5.288l14.843,17.745
						c0.736,0.881,2.015,1.146,3.056,0.57C86.826,281.309,87.253,279.823,86.6,278.643z"/>
				</g>
				<g>
					<rect x="72.67" y="429.313" style="fill:#E69D4F;" width="14.331" height="1.53"/>
					<path style="fill:#E69D4F;" d="M81.568,422.607h-3.466v-2.138c0-0.957,0.776-1.733,1.733-1.733l0,0
						c0.957,0,1.733,0.776,1.733,1.733V422.607z"/>
					<path style="fill:#FFF258;" d="M79.836,421.306L79.836,421.306c-3.957,0-7.166,3.208-7.166,7.165v0.841h14.331v-0.841
						C87.001,424.514,83.793,421.306,79.836,421.306z"/>
				</g>
				<g>
					<rect x="119.655" y="429.313" style="fill:#E69D4F;" width="14.331" height="1.53"/>
					<path style="fill:#E69D4F;" d="M128.554,422.607h-3.466v-2.138c0-0.957,0.776-1.733,1.733-1.733l0,0
						c0.957,0,1.733,0.776,1.733,1.733V422.607z"/>
					<path style="fill:#FFF258;" d="M126.821,421.306L126.821,421.306c-3.957,0-7.166,3.208-7.166,7.165v0.841h14.331v-0.841
						C133.986,424.514,130.778,421.306,126.821,421.306z"/>
				</g>
				<path style="fill:#FE7D9B;" d="M128.149,302.617c-1.266-12.504-5.034-24.766-11.039-35.902h-11.403h-4.694H89.61
					c-6.166,11.434-9.974,24.055-11.135,36.905l-4.175,101.518l14.287,1.786l14-102.838l1.18-0.466l14.064,102.188l14.064-2.009
					l-3.612-99.171C128.258,303.957,128.217,303.286,128.149,302.617z"/>
				<path style="fill:#00286E;" d="M123.271,226.84c-0.888-2.613-3.431-4.316-6.014-5.287c-2.584-0.971-5.38-1.308-7.895-2.445
					c-3.889,0.856-7.972,0.82-11.846-0.104c-2.5,1.133-5.065,1.264-7.689,2.071c-2.624,0.807-5.277,2.314-6.308,4.858
					c-0.793,1.958-0.487,4.166-0.167,6.254c1.838,12.019,3.676,24.038,5.514,36.057l29.143,0.179
					c1.285-11.867,3.112-23.691,5.199-35.444C123.57,230.941,123.937,228.8,123.271,226.84z"/>
				<path style="fill:#001B4A;" d="M111.547,219.907c-7.094,2.507-13.397,0.808-16.049-0.173c0.672-0.191,1.353-0.427,2.016-0.727
					c3.878,0.917,7.957,0.954,11.844,0.1C110.075,219.434,110.802,219.689,111.547,219.907z"/>
				<path style="fill:#00286E;" d="M86.242,244.921l-11.944,10.636l2.216,3.66l0.936,1.544l-8.483,5.613l-1.117-1.408l-6.167-7.775
					c-1.544-2.18-1.399-5.132,0.363-7.139l22.653-25.986l3.125,2.816L86.242,244.921z"/>
				<polygon style="fill:#001B4A;" points="77.45,260.762 68.966,266.375 67.849,264.967 76.514,259.217 				"/>
				<polygon style="fill:#001B4A;" points="138.332,264.976 137.215,266.375 128.732,260.762 129.531,259.445 				"/>
				<path style="fill:#FFF258;" d="M90.843,208.276c0.677-3.586-0.557-7.242-1.995-10.595s-3.127-6.704-3.419-10.341
					c-0.156-1.935,0.138-4.002,1.336-5.53c1.197-1.528,3.466-2.311,5.175-1.389c-0.129-1.609,0.226-2.839,1.385-3.963
					c1.159-1.124,2.655-1.839,4.178-2.374c5.737-2.016,12.268-1.658,17.75,0.973c2.704,1.298,5.302,3.334,6.12,6.219
					c1.126,3.973-1.397,7.931-2.896,11.779c-3.153,8.094-1.823,17.159-0.355,25.721c0.949,5.537,1.826,11.673-1.208,16.401
					c-3.163,4.93-10.097,6.65-15.588,4.611c-5.491-2.039-9.438-7.226-10.965-12.881C88.833,221.251,89.756,214.032,90.843,208.276z"
					/>
				
					<rect x="72.791" y="404.287" transform="matrix(0.9952 0.098 -0.098 0.9952 40.1853 -6.0107)" style="fill:#DE5272;" width="16.938" height="3.305"/>
				
					<rect x="116.049" y="403.605" transform="matrix(-0.9952 0.098 -0.098 -0.9952 288.1626 796.3572)" style="fill:#DE5272;" width="16.938" height="3.305"/>
				<polygon style="fill:#F58287;" points="76.901,261.125 69.649,265.923 70.858,267.368 77.213,261.688 				"/>
				<polygon style="fill:#F58287;" points="129.281,261.125 136.533,265.923 134.594,268.241 128.859,261.888 				"/>
				<polygon style="fill:#F58287;" points="75.659,407.048 87.361,408.201 86.732,411.75 75.659,408.417 				"/>
				<polygon style="fill:#F58287;" points="130.999,406.28 119.085,407.453 119.824,411.19 130.999,408.359 				"/>
				
					<line style="fill:none;stroke:#DE5272;stroke-width:0.9083;stroke-miterlimit:10;" x1="98.61" y1="303.815" x2="86.906" y2="401.824"/>
				
					<line style="fill:none;stroke:#DE5272;stroke-width:0.9083;stroke-miterlimit:10;" x1="107.072" y1="303.815" x2="119.655" y2="401.824"/>
				
					<rect x="88.738" y="277.245" transform="matrix(0.9973 0.0729 -0.0729 0.9973 20.5622 -6.1405)" style="fill:none;stroke:#DE5272;stroke-width:0.9083;stroke-miterlimit:10;" width="11.299" height="2.649"/>
				
					<rect x="106.334" y="277.245" transform="matrix(-0.9973 0.0729 -0.0729 -0.9973 243.9792 548.2325)" style="fill:none;stroke:#DE5272;stroke-width:0.9083;stroke-miterlimit:10;" width="11.299" height="2.649"/>
				
					<line style="fill:none;stroke:#DE5272;stroke-width:0.9083;stroke-miterlimit:10;" x1="89.004" y1="269.95" x2="117.361" y2="269.95"/>
			</g>
		</g>
	</g>
</g>
</svg>
